M48
; DRILL file {KiCad (5.1.6)-1} date 11/29/20 15:45:36
; FORMAT={-:-/ absolute / inch / decimal}
; #@! TF.CreationDate,2020-11-29T15:45:36-05:00
; #@! TF.GenerationSoftware,Kicad,Pcbnew,(5.1.6)-1
FMAT,2
INCH
T1C0.0157
T2C0.0250
T3C0.0315
T4C0.0394
T5C0.0394
T6C0.0400
T7C0.0433
T8C0.0984
T9C0.1220
T10C0.1575
%
G90
G05
T1
X3.46Y-3.765
X3.85Y-4.065
X3.865Y-3.65
X4.41Y-3.695
X4.475Y-3.75
X5.255Y-4.065
X5.34Y-3.43
X5.34Y-3.75
X5.495Y-3.695
X5.7273Y-4.4323
X5.77Y-4.505
X6.33Y-4.435
X6.36Y-4.505
T2
X3.685Y-4.565
X3.815Y-4.565
X5.1919Y-4.5656
T3
X4.1366Y-4.815
X4.235Y-4.815
X3.96Y-4.725
X3.96Y-5.125
X4.1341Y-5.055
X4.2325Y-5.055
T4
X6.005Y-4.36
X6.105Y-4.36
X6.205Y-4.36
X6.305Y-4.36
X6.405Y-4.36
X6.505Y-4.36
X6.605Y-4.36
X6.705Y-4.36
T5
X3.5602Y-3.5656
X3.5602Y-3.6656
X3.5602Y-3.7656
X3.5602Y-3.8656
X3.5602Y-3.9656
X3.5602Y-4.0656
X3.5602Y-4.1656
X3.5602Y-4.2656
X3.5602Y-4.3656
X3.5602Y-4.4656
X3.5602Y-4.5656
X3.5602Y-4.6656
X3.5602Y-4.7656
X3.5602Y-4.8656
T6
X5.2Y-4.7
X5.2Y-4.8
X5.3Y-4.7
X5.3Y-4.8
X5.4Y-4.7
X5.4Y-4.8
X5.5Y-4.7
X5.5Y-4.8
X5.6Y-4.7
X5.6Y-4.8
T7
X6.9528Y-4.115
X6.9528Y-4.3709
X7.13Y-4.115
X7.13Y-4.3709
X4.34Y-3.55
X4.34Y-4.15
X4.44Y-3.55
X4.44Y-4.15
X4.54Y-3.55
X4.54Y-4.15
X4.64Y-3.55
X4.64Y-4.15
X4.74Y-3.55
X4.74Y-4.15
X4.84Y-3.55
X4.84Y-4.15
X4.94Y-3.55
X4.94Y-4.15
X5.04Y-3.55
X5.04Y-4.15
X5.14Y-3.55
X5.14Y-4.15
X5.24Y-3.55
X5.24Y-4.15
X5.34Y-3.55
X5.34Y-4.15
X5.44Y-3.55
X5.44Y-4.15
X5.54Y-3.55
X5.54Y-4.15
X5.64Y-3.55
X5.64Y-4.15
X5.74Y-3.55
X5.74Y-4.15
X5.84Y-3.55
X5.84Y-4.15
X5.94Y-3.55
X5.94Y-4.15
X6.04Y-3.55
X6.04Y-4.15
X6.14Y-3.55
X6.14Y-4.15
X6.24Y-3.55
X6.24Y-4.15
X6.34Y-3.55
X6.34Y-4.15
X6.44Y-3.55
X6.44Y-4.15
X6.54Y-3.55
X6.54Y-4.15
X6.64Y-3.55
X6.64Y-4.15
X6.9528Y-4.555
X6.9528Y-4.8109
X7.13Y-4.555
X7.13Y-4.8109
X6.9528Y-3.685
X6.9528Y-3.9409
X7.13Y-3.685
X7.13Y-3.9409
T8
X6.005Y-4.86
X6.705Y-4.86
T9
X4.555Y-4.745
X4.555Y-4.9812
X4.74Y-4.8631
T10
X3.7539Y-3.3495
X3.7539Y-5.0818
X6.7492Y-3.3495
X6.7492Y-5.0818
T0
M30
