%TF.GenerationSoftware,KiCad,Pcbnew,(5.1.6)-1*%
%TF.CreationDate,2020-11-29T15:45:25-05:00*%
%TF.ProjectId,MainMush,4d61696e-4d75-4736-982e-6b696361645f,rev?*%
%TF.SameCoordinates,Original*%
%TF.FileFunction,Copper,L1,Top*%
%TF.FilePolarity,Positive*%
%FSLAX46Y46*%
G04 Gerber Fmt 4.6, Leading zero omitted, Abs format (unit mm)*
G04 Created by KiCad (PCBNEW (5.1.6)-1) date 2020-11-29 15:45:25*
%MOMM*%
%LPD*%
G01*
G04 APERTURE LIST*
%TA.AperFunction,ComponentPad*%
%ADD10O,1.600000X1.600000*%
%TD*%
%TA.AperFunction,ComponentPad*%
%ADD11C,1.600000*%
%TD*%
%TA.AperFunction,ComponentPad*%
%ADD12R,1.600000X1.600000*%
%TD*%
%TA.AperFunction,ComponentPad*%
%ADD13O,1.700000X1.700000*%
%TD*%
%TA.AperFunction,ComponentPad*%
%ADD14R,1.700000X1.700000*%
%TD*%
%TA.AperFunction,ComponentPad*%
%ADD15C,5.400000*%
%TD*%
%TA.AperFunction,ComponentPad*%
%ADD16C,5.000000*%
%TD*%
%TA.AperFunction,ComponentPad*%
%ADD17C,2.000000*%
%TD*%
%TA.AperFunction,ComponentPad*%
%ADD18C,1.778000*%
%TD*%
%TA.AperFunction,ComponentPad*%
%ADD19C,3.200000*%
%TD*%
%TA.AperFunction,ViaPad*%
%ADD20C,0.800000*%
%TD*%
%TA.AperFunction,ViaPad*%
%ADD21C,1.270000*%
%TD*%
%TA.AperFunction,Conductor*%
%ADD22C,0.508000*%
%TD*%
%TA.AperFunction,Conductor*%
%ADD23C,0.250000*%
%TD*%
G04 APERTURE END LIST*
D10*
%TO.P,R1,2*%
%TO.N,Net-(R1-Pad2)*%
X100584000Y-120015000D03*
D11*
%TO.P,R1,1*%
%TO.N,+5V*%
X100584000Y-130175000D03*
%TD*%
%TO.P,U1,17*%
%TO.N,Net-(U1-Pad17)*%
X128016000Y-90170000D03*
%TO.P,U1,18*%
%TO.N,Net-(U1-Pad18)*%
X125476000Y-90170000D03*
%TO.P,U1,19*%
%TO.N,Net-(U1-Pad19)*%
X122936000Y-90170000D03*
%TO.P,U1,20*%
%TO.N,Net-(U1-Pad20)*%
X120396000Y-90170000D03*
%TO.P,U1,16*%
%TO.N,Net-(U1-Pad16)*%
X130556000Y-90170000D03*
%TO.P,U1,15*%
%TO.N,Net-(U1-Pad15)*%
X133096000Y-90170000D03*
%TO.P,U1,14*%
%TO.N,D12*%
X135636000Y-90170000D03*
%TO.P,U1,21*%
%TO.N,Net-(U1-Pad21)*%
X117856000Y-90170000D03*
%TO.P,U1,22*%
%TO.N,Net-(U1-Pad22)*%
X115316000Y-90170000D03*
%TO.P,U1,23*%
%TO.N,Net-(U1-Pad23)*%
X112776000Y-90170000D03*
%TO.P,U1,24*%
%TO.N,D32*%
X110236000Y-90170000D03*
%TO.P,U1,25*%
%TO.N,Net-(U1-Pad25)*%
X110236000Y-105410000D03*
%TO.P,U1,26*%
%TO.N,Net-(U1-Pad26)*%
X112776000Y-105410000D03*
%TO.P,U1,27*%
%TO.N,Net-(U1-Pad27)*%
X115316000Y-105410000D03*
%TO.P,U1,28*%
%TO.N,Net-(U1-Pad28)*%
X117856000Y-105410000D03*
%TO.P,U1,29*%
%TO.N,Net-(U1-Pad29)*%
X120396000Y-105410000D03*
%TO.P,U1,30*%
%TO.N,Net-(U1-Pad30)*%
X122936000Y-105410000D03*
%TO.P,U1,31*%
%TO.N,Net-(U1-Pad31)*%
X125476000Y-105410000D03*
%TO.P,U1,32*%
%TO.N,Net-(U1-Pad32)*%
X128016000Y-105410000D03*
%TO.P,U1,33*%
%TO.N,Net-(U1-Pad33)*%
X130556000Y-105410000D03*
%TO.P,U1,34*%
%TO.N,Net-(U1-Pad34)*%
X133096000Y-105410000D03*
%TO.P,U1,13*%
%TO.N,D11*%
X138176000Y-90170000D03*
%TO.P,U1,12*%
%TO.N,D10*%
X140716000Y-90170000D03*
%TO.P,U1,11*%
%TO.N,D9*%
X143256000Y-90170000D03*
%TO.P,U1,10*%
%TO.N,D8*%
X145796000Y-90170000D03*
%TO.P,U1,9*%
%TO.N,Net-(U1-Pad9)*%
X148336000Y-90170000D03*
%TO.P,U1,8*%
%TO.N,Net-(U1-Pad8)*%
X150876000Y-90170000D03*
%TO.P,U1,7*%
%TO.N,D5*%
X153416000Y-90170000D03*
%TO.P,U1,6*%
%TO.N,Net-(U1-Pad6)*%
X155956000Y-90170000D03*
%TO.P,U1,5*%
%TO.N,Net-(U1-Pad5)*%
X158496000Y-90170000D03*
%TO.P,U1,4*%
%TO.N,Net-(SW3-Pad2)*%
X161036000Y-90170000D03*
%TO.P,U1,3*%
%TO.N,Net-(SW2-Pad2)*%
X163576000Y-90170000D03*
%TO.P,U1,2*%
%TO.N,Net-(SW1-Pad2)*%
X166116000Y-90170000D03*
D12*
%TO.P,U1,1*%
%TO.N,Net-(U1-Pad1)*%
X168656000Y-90170000D03*
D11*
%TO.P,U1,35*%
%TO.N,D13*%
X135636000Y-105410000D03*
%TO.P,U1,36*%
%TO.N,Net-(U1-Pad36)*%
X138176000Y-105410000D03*
%TO.P,U1,37*%
%TO.N,A1*%
X140716000Y-105410000D03*
%TO.P,U1,38*%
%TO.N,Net-(U1-Pad38)*%
X143256000Y-105410000D03*
%TO.P,U1,39*%
%TO.N,Net-(U1-Pad39)*%
X145796000Y-105410000D03*
%TO.P,U1,40*%
%TO.N,SDA*%
X148336000Y-105410000D03*
%TO.P,U1,41*%
%TO.N,SCL*%
X150876000Y-105410000D03*
%TO.P,U1,42*%
%TO.N,Net-(U1-Pad42)*%
X153416000Y-105410000D03*
%TO.P,U1,43*%
%TO.N,Net-(U1-Pad43)*%
X155956000Y-105410000D03*
%TO.P,U1,44*%
%TO.N,Net-(U1-Pad44)*%
X158496000Y-105410000D03*
%TO.P,U1,45*%
%TO.N,Net-(U1-Pad45)*%
X161036000Y-105410000D03*
%TO.P,U1,46*%
%TO.N,3.3V*%
X163576000Y-105410000D03*
%TO.P,U1,47*%
%TO.N,GND*%
X166116000Y-105410000D03*
%TO.P,U1,48*%
%TO.N,+5V*%
X168656000Y-105410000D03*
%TD*%
D13*
%TO.P,U2,13*%
%TO.N,D12*%
X90429000Y-93107000D03*
%TO.P,U2,5*%
%TO.N,D9*%
X90429000Y-113427000D03*
%TO.P,U2,14*%
%TO.N,D32*%
X90429000Y-90567000D03*
%TO.P,U2,6*%
%TO.N,D11*%
X90429000Y-110887000D03*
%TO.P,U2,10*%
%TO.N,D13*%
X90429000Y-100727000D03*
%TO.P,U2,8*%
%TO.N,Net-(R1-Pad2)*%
X90429000Y-105807000D03*
%TO.P,U2,9*%
%TO.N,D12*%
X90429000Y-103267000D03*
%TO.P,U2,11*%
%TO.N,D8*%
X90429000Y-98187000D03*
%TO.P,U2,12*%
%TO.N,D11*%
X90429000Y-95647000D03*
%TO.P,U2,4*%
%TO.N,3.3V*%
X90429000Y-115967000D03*
%TO.P,U2,7*%
%TO.N,D13*%
X90429000Y-108347000D03*
D14*
%TO.P,U2,1*%
%TO.N,+5V*%
X90429000Y-123587000D03*
D13*
%TO.P,U2,3*%
%TO.N,D10*%
X90429000Y-118507000D03*
%TO.P,U2,2*%
%TO.N,GND*%
X90429000Y-121047000D03*
D15*
%TO.P,U2,18*%
%TO.N,N/C*%
X171429000Y-129077000D03*
%TO.P,U2,17*%
X171429000Y-85077000D03*
%TO.P,U2,16*%
X95349000Y-85077000D03*
%TO.P,U2,15*%
X95349000Y-129077000D03*
%TD*%
D16*
%TO.P,J1,1*%
%TO.N,+5V*%
X115697000Y-120523000D03*
%TO.P,J1,2*%
%TO.N,GND*%
X115697000Y-126523000D03*
%TO.P,J1,3*%
%TO.N,Net-(J1-Pad3)*%
X120397000Y-123523000D03*
%TD*%
D11*
%TO.P,C1,1*%
%TO.N,+5V*%
X107569000Y-122301000D03*
%TO.P,C1,2*%
%TO.N,GND*%
X105069000Y-122301000D03*
%TD*%
D12*
%TO.P,C2,1*%
%TO.N,+5V*%
X107505500Y-128397000D03*
D11*
%TO.P,C2,2*%
%TO.N,GND*%
X105005500Y-128397000D03*
%TD*%
D17*
%TO.P,SW3,1*%
%TO.N,GND*%
X181102000Y-122197000D03*
%TO.P,SW3,2*%
%TO.N,Net-(SW3-Pad2)*%
X176602000Y-122197000D03*
%TO.P,SW3,1*%
%TO.N,GND*%
X181102000Y-115697000D03*
%TO.P,SW3,2*%
%TO.N,Net-(SW3-Pad2)*%
X176602000Y-115697000D03*
%TD*%
%TO.P,SW2,1*%
%TO.N,GND*%
X181102000Y-111021000D03*
%TO.P,SW2,2*%
%TO.N,Net-(SW2-Pad2)*%
X176602000Y-111021000D03*
%TO.P,SW2,1*%
%TO.N,GND*%
X181102000Y-104521000D03*
%TO.P,SW2,2*%
%TO.N,Net-(SW2-Pad2)*%
X176602000Y-104521000D03*
%TD*%
%TO.P,SW1,1*%
%TO.N,GND*%
X181102000Y-100099000D03*
%TO.P,SW1,2*%
%TO.N,Net-(SW1-Pad2)*%
X176602000Y-100099000D03*
%TO.P,SW1,1*%
%TO.N,GND*%
X181102000Y-93599000D03*
%TO.P,SW1,2*%
%TO.N,Net-(SW1-Pad2)*%
X176602000Y-93599000D03*
%TD*%
D18*
%TO.P,U3,8*%
%TO.N,D5*%
X152527000Y-110744000D03*
%TO.P,U3,7*%
%TO.N,Net-(U3-Pad7)*%
X155067000Y-110744000D03*
%TO.P,U3,6*%
%TO.N,Net-(U3-Pad6)*%
X157607000Y-110744000D03*
%TO.P,U3,5*%
%TO.N,Net-(U3-Pad5)*%
X160147000Y-110744000D03*
%TO.P,U3,4*%
%TO.N,SDA*%
X162687000Y-110744000D03*
%TO.P,U3,3*%
%TO.N,SCL*%
X165227000Y-110744000D03*
%TO.P,U3,2*%
%TO.N,GND*%
X167767000Y-110744000D03*
%TO.P,U3,1*%
%TO.N,+5V*%
X170307000Y-110744000D03*
D19*
%TO.P,U3,9*%
%TO.N,N/C*%
X170307000Y-123444000D03*
%TO.P,U3,10*%
X152527000Y-123444000D03*
%TD*%
D18*
%TO.P,J2,3*%
%TO.N,A1*%
X134620000Y-119380000D03*
%TO.P,J2,1*%
%TO.N,+5V*%
X132080000Y-119380000D03*
%TO.P,J2,5*%
%TO.N,SDA*%
X137160000Y-119380000D03*
%TO.P,J2,7*%
%TO.N,SCL*%
X139700000Y-119380000D03*
%TO.P,J2,9*%
%TO.N,Net-(J2-Pad9)*%
X142240000Y-119380000D03*
%TO.P,J2,10*%
%TO.N,GND*%
X142240000Y-121920000D03*
%TO.P,J2,4*%
X134620000Y-121920000D03*
%TO.P,J2,2*%
X132080000Y-121920000D03*
%TO.P,J2,6*%
X137160000Y-121920000D03*
%TO.P,J2,8*%
X139700000Y-121920000D03*
%TD*%
D20*
%TO.N,SCL*%
X161544000Y-114427000D03*
X146558000Y-114427000D03*
%TO.N,SDA*%
X160782000Y-112649000D03*
X145473847Y-112580847D03*
%TO.N,D12*%
X135636000Y-87122000D03*
%TO.N,D11*%
X87884000Y-95631000D03*
%TO.N,D10*%
X135636000Y-95250000D03*
X113665000Y-95250000D03*
%TO.N,D9*%
X112014000Y-93853000D03*
X139573000Y-93853000D03*
%TO.N,D8*%
X98171000Y-92710000D03*
%TO.N,D13*%
X133477000Y-103251000D03*
X97790000Y-103251000D03*
D21*
%TO.N,3.3V*%
X93599000Y-115951000D03*
X96901000Y-115951000D03*
X131873500Y-115967000D03*
%TD*%
D22*
%TO.N,GND*%
X181102000Y-122197000D02*
X181102000Y-115697000D01*
X181102000Y-111021000D02*
X181102000Y-104521000D01*
X181102000Y-93599000D02*
X181102000Y-100099000D01*
X181102000Y-104521000D02*
X181102000Y-100099000D01*
X181102000Y-115697000D02*
X181102000Y-111021000D01*
%TO.N,+5V*%
X170307000Y-107061000D02*
X170307000Y-110744000D01*
X170307000Y-110744000D02*
X161988500Y-119062500D01*
X168656000Y-105410000D02*
X170307000Y-107061000D01*
X132080000Y-119380000D02*
X130302000Y-121158000D01*
X130302000Y-121158000D02*
X130302000Y-122936000D01*
X130302000Y-122936000D02*
X131064000Y-123698000D01*
X131064000Y-123698000D02*
X143764000Y-123698000D01*
X143764000Y-123698000D02*
X147320000Y-120142000D01*
X160909000Y-120142000D02*
X161988500Y-119062500D01*
X147320000Y-120142000D02*
X160909000Y-120142000D01*
X90445000Y-123571000D02*
X90429000Y-123587000D01*
X113538000Y-120523000D02*
X114681000Y-119380000D01*
X116840000Y-119380000D02*
X132080000Y-119380000D01*
X115697000Y-120523000D02*
X116840000Y-119380000D01*
X107569000Y-122301000D02*
X109347000Y-120523000D01*
X107505500Y-122364500D02*
X107569000Y-122301000D01*
X107505500Y-128397000D02*
X107505500Y-122364500D01*
X115697000Y-120523000D02*
X109347000Y-120523000D01*
X105727500Y-130175000D02*
X107505500Y-128397000D01*
X100584000Y-130175000D02*
X105727500Y-130175000D01*
D23*
%TO.N,SCL*%
X150876000Y-105410000D02*
X150876000Y-108204000D01*
X139700000Y-119380000D02*
X141351000Y-117729000D01*
X141351000Y-117729000D02*
X143256000Y-117729000D01*
X150876000Y-110109000D02*
X150876000Y-108204000D01*
X165227000Y-110744000D02*
X161544000Y-114427000D01*
X143256000Y-117729000D02*
X146558000Y-114427000D01*
X146558000Y-114427000D02*
X150876000Y-110109000D01*
%TO.N,SDA*%
X137160000Y-119380000D02*
X138938000Y-117602000D01*
X138938000Y-117602000D02*
X140589000Y-117602000D01*
X140589000Y-117602000D02*
X145415000Y-112776000D01*
X145415000Y-112776000D02*
X148336000Y-109855000D01*
X148336000Y-105410000D02*
X148336000Y-109855000D01*
X162687000Y-110744000D02*
X160782000Y-112649000D01*
%TO.N,D5*%
X152146000Y-106299000D02*
X152146000Y-98044000D01*
X152527000Y-110744000D02*
X152527000Y-106680000D01*
X152527000Y-106680000D02*
X152146000Y-106299000D01*
X153416000Y-96774000D02*
X152146000Y-98044000D01*
X153416000Y-90170000D02*
X153416000Y-96774000D01*
D22*
%TO.N,Net-(SW1-Pad2)*%
X176602000Y-93599000D02*
X176602000Y-100099000D01*
X166116000Y-90170000D02*
X169545000Y-93599000D01*
X176602000Y-93599000D02*
X169545000Y-93599000D01*
%TO.N,Net-(SW2-Pad2)*%
X176602000Y-104521000D02*
X176602000Y-111021000D01*
X175768000Y-104521000D02*
X176602000Y-104521000D01*
X163576000Y-91495000D02*
X176602000Y-104521000D01*
X163576000Y-90170000D02*
X163576000Y-91495000D01*
%TO.N,Net-(SW3-Pad2)*%
X176602000Y-115697000D02*
X176602000Y-122197000D01*
X173101000Y-112196000D02*
X176602000Y-115697000D01*
X161036000Y-90170000D02*
X161036000Y-92329000D01*
X173101000Y-104394000D02*
X173101000Y-112196000D01*
X161036000Y-92329000D02*
X173101000Y-104394000D01*
D23*
%TO.N,A1*%
X134620000Y-119380000D02*
X140716000Y-113284000D01*
X140716000Y-113284000D02*
X140716000Y-105410000D01*
%TO.N,D12*%
X90429000Y-93107000D02*
X88773000Y-94763000D01*
X88773000Y-101611000D02*
X90429000Y-103267000D01*
X88773000Y-94763000D02*
X88773000Y-101611000D01*
X95361000Y-93107000D02*
X101346000Y-87122000D01*
X90429000Y-93107000D02*
X95361000Y-93107000D01*
X101346000Y-87122000D02*
X135636000Y-87122000D01*
%TO.N,D11*%
X87884000Y-108342000D02*
X90429000Y-110887000D01*
X87884000Y-95631000D02*
X87884000Y-108342000D01*
X137287000Y-88011000D02*
X138176000Y-88900000D01*
X101727000Y-88011000D02*
X137287000Y-88011000D01*
X90429000Y-95647000D02*
X94091000Y-95647000D01*
X138176000Y-88900000D02*
X138176000Y-90170000D01*
X94091000Y-95647000D02*
X101727000Y-88011000D01*
%TO.N,D10*%
X140716000Y-90170000D02*
X135636000Y-95250000D01*
X90429000Y-118486000D02*
X90429000Y-118507000D01*
X90429000Y-118507000D02*
X92821000Y-118507000D01*
X113665000Y-97663000D02*
X113665000Y-95250000D01*
X92821000Y-118507000D02*
X113665000Y-97663000D01*
%TO.N,D9*%
X90429000Y-113427000D02*
X92440000Y-113427000D01*
X92440000Y-113427000D02*
X112014000Y-93853000D01*
X139573000Y-93853000D02*
X143256000Y-90170000D01*
%TO.N,D8*%
X90429000Y-98187000D02*
X92821000Y-98187000D01*
X92821000Y-98187000D02*
X98171000Y-92837000D01*
X98171000Y-92837000D02*
X98171000Y-92710000D01*
%TO.N,D13*%
X135636000Y-105410000D02*
X133477000Y-103251000D01*
X92694000Y-108347000D02*
X97790000Y-103251000D01*
X90429000Y-108347000D02*
X92694000Y-108347000D01*
D22*
%TO.N,3.3V*%
X90429000Y-115967000D02*
X93583000Y-115967000D01*
X93583000Y-115967000D02*
X93599000Y-115951000D01*
X96901000Y-115951000D02*
X131857500Y-115951000D01*
X131857500Y-115951000D02*
X131873500Y-115967000D01*
%TD*%
M02*
