M48
; DRILL file {KiCad (5.1.6)-1} date 11/07/20 19:51:20
; FORMAT={-:-/ absolute / inch / decimal}
; #@! TF.CreationDate,2020-11-07T19:51:20-05:00
; #@! TF.GenerationSoftware,Kicad,Pcbnew,(5.1.6)-1
FMAT,2
INCH
T1C0.0290
T2C0.0315
T3C0.0394
T4C0.0400
T5C0.0984
T6C0.1260
%
G90
G05
T1
X6.345Y-3.8
X6.345Y-3.9
X6.345Y-4.0
X6.345Y-4.1
X6.14Y-3.97
X6.14Y-4.22
T2
X5.9766Y-3.85
X6.075Y-3.85
X5.9016Y-4.095
X6.0Y-4.095
T3
X6.25Y-3.5
X6.35Y-3.5
X6.45Y-3.5
X6.55Y-3.5
X6.65Y-3.5
X6.75Y-3.5
X6.85Y-3.5
X6.95Y-3.5
T4
X5.96Y-3.12
X5.96Y-3.22
X5.96Y-3.32
X5.96Y-3.42
X5.96Y-3.52
X6.06Y-3.12
X6.06Y-3.22
X6.06Y-3.32
X6.06Y-3.42
X6.06Y-3.52
T5
X6.3Y-3.0
X6.9Y-3.0
T6
X6.925Y-2.725
X5.9Y-2.725
X6.925Y-4.45
X5.9Y-4.45
T0
M30
