%TF.GenerationSoftware,KiCad,Pcbnew,(5.1.6)-1*%
%TF.CreationDate,2020-11-07T19:51:12-05:00*%
%TF.ProjectId,SatelliteMush,53617465-6c6c-4697-9465-4d7573682e6b,rev?*%
%TF.SameCoordinates,Original*%
%TF.FileFunction,Copper,L2,Bot*%
%TF.FilePolarity,Positive*%
%FSLAX46Y46*%
G04 Gerber Fmt 4.6, Leading zero omitted, Abs format (unit mm)*
G04 Created by KiCad (PCBNEW (5.1.6)-1) date 2020-11-07 19:51:12*
%MOMM*%
%LPD*%
G01*
G04 APERTURE LIST*
%TA.AperFunction,ComponentPad*%
%ADD10C,1.600000*%
%TD*%
%TA.AperFunction,ComponentPad*%
%ADD11C,3.200000*%
%TD*%
%TA.AperFunction,ComponentPad*%
%ADD12C,1.778000*%
%TD*%
%TA.AperFunction,ComponentPad*%
%ADD13R,1.600000X1.600000*%
%TD*%
%TA.AperFunction,ComponentPad*%
%ADD14C,6.400000*%
%TD*%
%TA.AperFunction,ComponentPad*%
%ADD15C,1.422400*%
%TD*%
%TA.AperFunction,Conductor*%
%ADD16C,0.254000*%
%TD*%
G04 APERTURE END LIST*
D10*
%TO.P,C1,2*%
%TO.N,GND*%
X151805000Y-97790000D03*
%TO.P,C1,1*%
%TO.N,+5V*%
X154305000Y-97790000D03*
%TD*%
D11*
%TO.P,U2,10*%
%TO.N,N/C*%
X175260000Y-76200000D03*
%TO.P,U2,9*%
X160020000Y-76200000D03*
D12*
%TO.P,U2,1*%
%TO.N,+5V*%
X158750000Y-88900000D03*
%TO.P,U2,2*%
%TO.N,Net-(U2-Pad2)*%
X161290000Y-88900000D03*
%TO.P,U2,3*%
%TO.N,GND*%
X163830000Y-88900000D03*
%TO.P,U2,4*%
%TO.N,SDA*%
X166370000Y-88900000D03*
%TO.P,U2,5*%
%TO.N,SCL*%
X168910000Y-88900000D03*
%TO.P,U2,6*%
%TO.N,GND*%
X171450000Y-88900000D03*
%TO.P,U2,7*%
%TO.N,Net-(U2-Pad7)*%
X173990000Y-88900000D03*
%TO.P,U2,8*%
%TO.N,Net-(U2-Pad8)*%
X176530000Y-88900000D03*
%TD*%
D10*
%TO.P,C2,2*%
%TO.N,GND*%
X149900000Y-104013000D03*
D13*
%TO.P,C2,1*%
%TO.N,+5V*%
X152400000Y-104013000D03*
%TD*%
D14*
%TO.P,REF\u002A\u002A,1*%
%TO.N,N/C*%
X175895000Y-113030000D03*
%TD*%
%TO.P,REF\u002A\u002A,1*%
%TO.N,N/C*%
X149860000Y-113030000D03*
%TD*%
%TO.P,REF\u002A\u002A,1*%
%TO.N,N/C*%
X149860000Y-69215000D03*
%TD*%
%TO.P,REF\u002A\u002A,1*%
%TO.N,N/C*%
X175895000Y-69215000D03*
%TD*%
D15*
%TO.P,U1,1*%
%TO.N,+5V*%
X161163000Y-96520000D03*
%TO.P,U1,4*%
%TO.N,GND*%
X161163000Y-104140000D03*
%TO.P,U1,3*%
%TO.N,Net-(U1-Pad3)*%
X161163000Y-101600000D03*
%TO.P,U1,2*%
%TO.N,D4*%
X161163000Y-99060000D03*
%TD*%
%TO.P,R1,2*%
%TO.N,D4*%
X155956000Y-107188000D03*
%TO.P,R1,1*%
%TO.N,+5V*%
X155956000Y-100838000D03*
%TD*%
D12*
%TO.P,J1,3*%
%TO.N,D4*%
X151384000Y-86868000D03*
%TO.P,J1,1*%
%TO.N,+5V*%
X151384000Y-89408000D03*
%TO.P,J1,5*%
%TO.N,SDA*%
X151384000Y-84328000D03*
%TO.P,J1,7*%
%TO.N,SCL*%
X151384000Y-81788000D03*
%TO.P,J1,9*%
%TO.N,Net-(J1-Pad9)*%
X151384000Y-79248000D03*
%TO.P,J1,10*%
%TO.N,GND*%
X153924000Y-79248000D03*
%TO.P,J1,4*%
X153924000Y-86868000D03*
%TO.P,J1,2*%
X153924000Y-89408000D03*
%TO.P,J1,6*%
X153924000Y-84328000D03*
%TO.P,J1,8*%
X153924000Y-81788000D03*
%TD*%
D16*
%TO.N,GND*%
G36*
X174776372Y-65527377D02*
G01*
X174078446Y-65816467D01*
X173450330Y-66236161D01*
X172916161Y-66770330D01*
X172496467Y-67398446D01*
X172207377Y-68096372D01*
X172060000Y-68837285D01*
X172060000Y-69592715D01*
X172207377Y-70333628D01*
X172496467Y-71031554D01*
X172916161Y-71659670D01*
X173450330Y-72193839D01*
X174078446Y-72613533D01*
X174776372Y-72902623D01*
X175517285Y-73050000D01*
X176272715Y-73050000D01*
X177013628Y-72902623D01*
X177711554Y-72613533D01*
X178339670Y-72193839D01*
X178873839Y-71659670D01*
X179293533Y-71031554D01*
X179582623Y-70333628D01*
X179680000Y-69844082D01*
X179680001Y-112400923D01*
X179582623Y-111911372D01*
X179293533Y-111213446D01*
X178873839Y-110585330D01*
X178339670Y-110051161D01*
X177711554Y-109631467D01*
X177013628Y-109342377D01*
X176272715Y-109195000D01*
X175517285Y-109195000D01*
X174776372Y-109342377D01*
X174078446Y-109631467D01*
X173450330Y-110051161D01*
X172916161Y-110585330D01*
X172496467Y-111213446D01*
X172207377Y-111911372D01*
X172060000Y-112652285D01*
X172060000Y-113407715D01*
X172207377Y-114148628D01*
X172496467Y-114846554D01*
X172916161Y-115474670D01*
X173450330Y-116008839D01*
X174078446Y-116428533D01*
X174776372Y-116717623D01*
X175265918Y-116815000D01*
X150489082Y-116815000D01*
X150978628Y-116717623D01*
X151676554Y-116428533D01*
X152304670Y-116008839D01*
X152838839Y-115474670D01*
X153258533Y-114846554D01*
X153547623Y-114148628D01*
X153695000Y-113407715D01*
X153695000Y-112652285D01*
X153547623Y-111911372D01*
X153258533Y-111213446D01*
X152838839Y-110585330D01*
X152304670Y-110051161D01*
X151676554Y-109631467D01*
X150978628Y-109342377D01*
X150237715Y-109195000D01*
X149482285Y-109195000D01*
X148741372Y-109342377D01*
X148043446Y-109631467D01*
X147415330Y-110051161D01*
X146881161Y-110585330D01*
X146461467Y-111213446D01*
X146172377Y-111911372D01*
X146075000Y-112400918D01*
X146075000Y-107055411D01*
X154609800Y-107055411D01*
X154609800Y-107320589D01*
X154661533Y-107580672D01*
X154763013Y-107825665D01*
X154910338Y-108046153D01*
X155097847Y-108233662D01*
X155318335Y-108380987D01*
X155563328Y-108482467D01*
X155823411Y-108534200D01*
X156088589Y-108534200D01*
X156348672Y-108482467D01*
X156593665Y-108380987D01*
X156814153Y-108233662D01*
X157001662Y-108046153D01*
X157148987Y-107825665D01*
X157250467Y-107580672D01*
X157302200Y-107320589D01*
X157302200Y-107055411D01*
X157250467Y-106795328D01*
X157148987Y-106550335D01*
X157001662Y-106329847D01*
X156814153Y-106142338D01*
X156593665Y-105995013D01*
X156348672Y-105893533D01*
X156088589Y-105841800D01*
X155823411Y-105841800D01*
X155563328Y-105893533D01*
X155318335Y-105995013D01*
X155097847Y-106142338D01*
X154910338Y-106329847D01*
X154763013Y-106550335D01*
X154661533Y-106795328D01*
X154609800Y-107055411D01*
X146075000Y-107055411D01*
X146075000Y-105005702D01*
X149086903Y-105005702D01*
X149158486Y-105249671D01*
X149413996Y-105370571D01*
X149688184Y-105439300D01*
X149970512Y-105453217D01*
X150250130Y-105411787D01*
X150516292Y-105316603D01*
X150641514Y-105249671D01*
X150713097Y-105005702D01*
X149900000Y-104192605D01*
X149086903Y-105005702D01*
X146075000Y-105005702D01*
X146075000Y-104083512D01*
X148459783Y-104083512D01*
X148501213Y-104363130D01*
X148596397Y-104629292D01*
X148663329Y-104754514D01*
X148907298Y-104826097D01*
X149720395Y-104013000D01*
X150079605Y-104013000D01*
X150892702Y-104826097D01*
X150961928Y-104805785D01*
X150961928Y-104813000D01*
X150974188Y-104937482D01*
X151010498Y-105057180D01*
X151069463Y-105167494D01*
X151148815Y-105264185D01*
X151245506Y-105343537D01*
X151355820Y-105402502D01*
X151475518Y-105438812D01*
X151600000Y-105451072D01*
X153200000Y-105451072D01*
X153324482Y-105438812D01*
X153444180Y-105402502D01*
X153554494Y-105343537D01*
X153651185Y-105264185D01*
X153730537Y-105167494D01*
X153783038Y-105069273D01*
X160413332Y-105069273D01*
X160474152Y-105304183D01*
X160714509Y-105416202D01*
X160972102Y-105479176D01*
X161237030Y-105490687D01*
X161499113Y-105450291D01*
X161748280Y-105359542D01*
X161851848Y-105304183D01*
X161912668Y-105069273D01*
X161163000Y-104319605D01*
X160413332Y-105069273D01*
X153783038Y-105069273D01*
X153789502Y-105057180D01*
X153825812Y-104937482D01*
X153838072Y-104813000D01*
X153838072Y-104214030D01*
X159812313Y-104214030D01*
X159852709Y-104476113D01*
X159943458Y-104725280D01*
X159998817Y-104828848D01*
X160233727Y-104889668D01*
X160983395Y-104140000D01*
X161342605Y-104140000D01*
X162092273Y-104889668D01*
X162327183Y-104828848D01*
X162439202Y-104588491D01*
X162502176Y-104330898D01*
X162513687Y-104065970D01*
X162473291Y-103803887D01*
X162382542Y-103554720D01*
X162327183Y-103451152D01*
X162092273Y-103390332D01*
X161342605Y-104140000D01*
X160983395Y-104140000D01*
X160233727Y-103390332D01*
X159998817Y-103451152D01*
X159886798Y-103691509D01*
X159823824Y-103949102D01*
X159812313Y-104214030D01*
X153838072Y-104214030D01*
X153838072Y-103213000D01*
X153825812Y-103088518D01*
X153789502Y-102968820D01*
X153730537Y-102858506D01*
X153651185Y-102761815D01*
X153554494Y-102682463D01*
X153444180Y-102623498D01*
X153324482Y-102587188D01*
X153200000Y-102574928D01*
X151600000Y-102574928D01*
X151475518Y-102587188D01*
X151355820Y-102623498D01*
X151245506Y-102682463D01*
X151148815Y-102761815D01*
X151069463Y-102858506D01*
X151010498Y-102968820D01*
X150974188Y-103088518D01*
X150961928Y-103213000D01*
X150961928Y-103220215D01*
X150892702Y-103199903D01*
X150079605Y-104013000D01*
X149720395Y-104013000D01*
X148907298Y-103199903D01*
X148663329Y-103271486D01*
X148542429Y-103526996D01*
X148473700Y-103801184D01*
X148459783Y-104083512D01*
X146075000Y-104083512D01*
X146075000Y-103020298D01*
X149086903Y-103020298D01*
X149900000Y-103833395D01*
X150713097Y-103020298D01*
X150641514Y-102776329D01*
X150386004Y-102655429D01*
X150111816Y-102586700D01*
X149829488Y-102572783D01*
X149549870Y-102614213D01*
X149283708Y-102709397D01*
X149158486Y-102776329D01*
X149086903Y-103020298D01*
X146075000Y-103020298D01*
X146075000Y-100705411D01*
X154609800Y-100705411D01*
X154609800Y-100970589D01*
X154661533Y-101230672D01*
X154763013Y-101475665D01*
X154910338Y-101696153D01*
X155097847Y-101883662D01*
X155318335Y-102030987D01*
X155563328Y-102132467D01*
X155823411Y-102184200D01*
X156088589Y-102184200D01*
X156348672Y-102132467D01*
X156593665Y-102030987D01*
X156814153Y-101883662D01*
X157001662Y-101696153D01*
X157148987Y-101475665D01*
X157250467Y-101230672D01*
X157302200Y-100970589D01*
X157302200Y-100705411D01*
X157250467Y-100445328D01*
X157148987Y-100200335D01*
X157001662Y-99979847D01*
X156814153Y-99792338D01*
X156593665Y-99645013D01*
X156348672Y-99543533D01*
X156088589Y-99491800D01*
X155823411Y-99491800D01*
X155563328Y-99543533D01*
X155318335Y-99645013D01*
X155097847Y-99792338D01*
X154910338Y-99979847D01*
X154763013Y-100200335D01*
X154661533Y-100445328D01*
X154609800Y-100705411D01*
X146075000Y-100705411D01*
X146075000Y-98782702D01*
X150991903Y-98782702D01*
X151063486Y-99026671D01*
X151318996Y-99147571D01*
X151593184Y-99216300D01*
X151875512Y-99230217D01*
X152155130Y-99188787D01*
X152421292Y-99093603D01*
X152546514Y-99026671D01*
X152618097Y-98782702D01*
X151805000Y-97969605D01*
X150991903Y-98782702D01*
X146075000Y-98782702D01*
X146075000Y-97860512D01*
X150364783Y-97860512D01*
X150406213Y-98140130D01*
X150501397Y-98406292D01*
X150568329Y-98531514D01*
X150812298Y-98603097D01*
X151625395Y-97790000D01*
X151984605Y-97790000D01*
X152797702Y-98603097D01*
X153041671Y-98531514D01*
X153055324Y-98502659D01*
X153190363Y-98704759D01*
X153390241Y-98904637D01*
X153625273Y-99061680D01*
X153886426Y-99169853D01*
X154163665Y-99225000D01*
X154446335Y-99225000D01*
X154723574Y-99169853D01*
X154984727Y-99061680D01*
X155219759Y-98904637D01*
X155419637Y-98704759D01*
X155576680Y-98469727D01*
X155684853Y-98208574D01*
X155740000Y-97931335D01*
X155740000Y-97648665D01*
X155684853Y-97371426D01*
X155576680Y-97110273D01*
X155419637Y-96875241D01*
X155219759Y-96675363D01*
X154984727Y-96518320D01*
X154723574Y-96410147D01*
X154609274Y-96387411D01*
X159816800Y-96387411D01*
X159816800Y-96652589D01*
X159868533Y-96912672D01*
X159970013Y-97157665D01*
X160117338Y-97378153D01*
X160304847Y-97565662D01*
X160525335Y-97712987D01*
X160711260Y-97790000D01*
X160525335Y-97867013D01*
X160304847Y-98014338D01*
X160117338Y-98201847D01*
X159970013Y-98422335D01*
X159868533Y-98667328D01*
X159816800Y-98927411D01*
X159816800Y-99192589D01*
X159868533Y-99452672D01*
X159970013Y-99697665D01*
X160117338Y-99918153D01*
X160304847Y-100105662D01*
X160525335Y-100252987D01*
X160711260Y-100330000D01*
X160525335Y-100407013D01*
X160304847Y-100554338D01*
X160117338Y-100741847D01*
X159970013Y-100962335D01*
X159868533Y-101207328D01*
X159816800Y-101467411D01*
X159816800Y-101732589D01*
X159868533Y-101992672D01*
X159970013Y-102237665D01*
X160117338Y-102458153D01*
X160304847Y-102645662D01*
X160525335Y-102792987D01*
X160713600Y-102870969D01*
X160577720Y-102920458D01*
X160474152Y-102975817D01*
X160413332Y-103210727D01*
X161163000Y-103960395D01*
X161912668Y-103210727D01*
X161851848Y-102975817D01*
X161620066Y-102867794D01*
X161800665Y-102792987D01*
X162021153Y-102645662D01*
X162208662Y-102458153D01*
X162355987Y-102237665D01*
X162457467Y-101992672D01*
X162509200Y-101732589D01*
X162509200Y-101467411D01*
X162457467Y-101207328D01*
X162355987Y-100962335D01*
X162208662Y-100741847D01*
X162021153Y-100554338D01*
X161800665Y-100407013D01*
X161614740Y-100330000D01*
X161800665Y-100252987D01*
X162021153Y-100105662D01*
X162208662Y-99918153D01*
X162355987Y-99697665D01*
X162457467Y-99452672D01*
X162509200Y-99192589D01*
X162509200Y-98927411D01*
X162457467Y-98667328D01*
X162355987Y-98422335D01*
X162208662Y-98201847D01*
X162021153Y-98014338D01*
X161800665Y-97867013D01*
X161614740Y-97790000D01*
X161800665Y-97712987D01*
X162021153Y-97565662D01*
X162208662Y-97378153D01*
X162355987Y-97157665D01*
X162457467Y-96912672D01*
X162509200Y-96652589D01*
X162509200Y-96387411D01*
X162457467Y-96127328D01*
X162355987Y-95882335D01*
X162208662Y-95661847D01*
X162021153Y-95474338D01*
X161800665Y-95327013D01*
X161555672Y-95225533D01*
X161295589Y-95173800D01*
X161030411Y-95173800D01*
X160770328Y-95225533D01*
X160525335Y-95327013D01*
X160304847Y-95474338D01*
X160117338Y-95661847D01*
X159970013Y-95882335D01*
X159868533Y-96127328D01*
X159816800Y-96387411D01*
X154609274Y-96387411D01*
X154446335Y-96355000D01*
X154163665Y-96355000D01*
X153886426Y-96410147D01*
X153625273Y-96518320D01*
X153390241Y-96675363D01*
X153190363Y-96875241D01*
X153056308Y-97075869D01*
X153041671Y-97048486D01*
X152797702Y-96976903D01*
X151984605Y-97790000D01*
X151625395Y-97790000D01*
X150812298Y-96976903D01*
X150568329Y-97048486D01*
X150447429Y-97303996D01*
X150378700Y-97578184D01*
X150364783Y-97860512D01*
X146075000Y-97860512D01*
X146075000Y-96797298D01*
X150991903Y-96797298D01*
X151805000Y-97610395D01*
X152618097Y-96797298D01*
X152546514Y-96553329D01*
X152291004Y-96432429D01*
X152016816Y-96363700D01*
X151734488Y-96349783D01*
X151454870Y-96391213D01*
X151188708Y-96486397D01*
X151063486Y-96553329D01*
X150991903Y-96797298D01*
X146075000Y-96797298D01*
X146075000Y-79097899D01*
X149860000Y-79097899D01*
X149860000Y-79398101D01*
X149918566Y-79692534D01*
X150033449Y-79969885D01*
X150200232Y-80219493D01*
X150412507Y-80431768D01*
X150541562Y-80518000D01*
X150412507Y-80604232D01*
X150200232Y-80816507D01*
X150033449Y-81066115D01*
X149918566Y-81343466D01*
X149860000Y-81637899D01*
X149860000Y-81938101D01*
X149918566Y-82232534D01*
X150033449Y-82509885D01*
X150200232Y-82759493D01*
X150412507Y-82971768D01*
X150541562Y-83058000D01*
X150412507Y-83144232D01*
X150200232Y-83356507D01*
X150033449Y-83606115D01*
X149918566Y-83883466D01*
X149860000Y-84177899D01*
X149860000Y-84478101D01*
X149918566Y-84772534D01*
X150033449Y-85049885D01*
X150200232Y-85299493D01*
X150412507Y-85511768D01*
X150541562Y-85598000D01*
X150412507Y-85684232D01*
X150200232Y-85896507D01*
X150033449Y-86146115D01*
X149918566Y-86423466D01*
X149860000Y-86717899D01*
X149860000Y-87018101D01*
X149918566Y-87312534D01*
X150033449Y-87589885D01*
X150200232Y-87839493D01*
X150412507Y-88051768D01*
X150541562Y-88138000D01*
X150412507Y-88224232D01*
X150200232Y-88436507D01*
X150033449Y-88686115D01*
X149918566Y-88963466D01*
X149860000Y-89257899D01*
X149860000Y-89558101D01*
X149918566Y-89852534D01*
X150033449Y-90129885D01*
X150200232Y-90379493D01*
X150412507Y-90591768D01*
X150662115Y-90758551D01*
X150939466Y-90873434D01*
X151233899Y-90932000D01*
X151534101Y-90932000D01*
X151828534Y-90873434D01*
X152105885Y-90758551D01*
X152355493Y-90591768D01*
X152483030Y-90464231D01*
X153047374Y-90464231D01*
X153129727Y-90717289D01*
X153400418Y-90847086D01*
X153691230Y-90921580D01*
X153990988Y-90937908D01*
X154288171Y-90895443D01*
X154571359Y-90795816D01*
X154718273Y-90717289D01*
X154800626Y-90464231D01*
X153924000Y-89587605D01*
X153047374Y-90464231D01*
X152483030Y-90464231D01*
X152567768Y-90379493D01*
X152673417Y-90221378D01*
X152867769Y-90284626D01*
X153744395Y-89408000D01*
X154103605Y-89408000D01*
X154980231Y-90284626D01*
X155233289Y-90202273D01*
X155363086Y-89931582D01*
X155437580Y-89640770D01*
X155453908Y-89341012D01*
X155411443Y-89043829D01*
X155311816Y-88760641D01*
X155306075Y-88749899D01*
X157226000Y-88749899D01*
X157226000Y-89050101D01*
X157284566Y-89344534D01*
X157399449Y-89621885D01*
X157566232Y-89871493D01*
X157778507Y-90083768D01*
X158028115Y-90250551D01*
X158305466Y-90365434D01*
X158599899Y-90424000D01*
X158900101Y-90424000D01*
X159194534Y-90365434D01*
X159471885Y-90250551D01*
X159721493Y-90083768D01*
X159933768Y-89871493D01*
X160020000Y-89742438D01*
X160106232Y-89871493D01*
X160318507Y-90083768D01*
X160568115Y-90250551D01*
X160845466Y-90365434D01*
X161139899Y-90424000D01*
X161440101Y-90424000D01*
X161734534Y-90365434D01*
X162011885Y-90250551D01*
X162261493Y-90083768D01*
X162389030Y-89956231D01*
X162953374Y-89956231D01*
X163035727Y-90209289D01*
X163306418Y-90339086D01*
X163597230Y-90413580D01*
X163896988Y-90429908D01*
X164194171Y-90387443D01*
X164477359Y-90287816D01*
X164624273Y-90209289D01*
X164706626Y-89956231D01*
X163830000Y-89079605D01*
X162953374Y-89956231D01*
X162389030Y-89956231D01*
X162473768Y-89871493D01*
X162579417Y-89713378D01*
X162773769Y-89776626D01*
X163650395Y-88900000D01*
X164009605Y-88900000D01*
X164886231Y-89776626D01*
X165080583Y-89713378D01*
X165186232Y-89871493D01*
X165398507Y-90083768D01*
X165648115Y-90250551D01*
X165925466Y-90365434D01*
X166219899Y-90424000D01*
X166520101Y-90424000D01*
X166814534Y-90365434D01*
X167091885Y-90250551D01*
X167341493Y-90083768D01*
X167553768Y-89871493D01*
X167640000Y-89742438D01*
X167726232Y-89871493D01*
X167938507Y-90083768D01*
X168188115Y-90250551D01*
X168465466Y-90365434D01*
X168759899Y-90424000D01*
X169060101Y-90424000D01*
X169354534Y-90365434D01*
X169631885Y-90250551D01*
X169881493Y-90083768D01*
X170009030Y-89956231D01*
X170573374Y-89956231D01*
X170655727Y-90209289D01*
X170926418Y-90339086D01*
X171217230Y-90413580D01*
X171516988Y-90429908D01*
X171814171Y-90387443D01*
X172097359Y-90287816D01*
X172244273Y-90209289D01*
X172326626Y-89956231D01*
X171450000Y-89079605D01*
X170573374Y-89956231D01*
X170009030Y-89956231D01*
X170093768Y-89871493D01*
X170199417Y-89713378D01*
X170393769Y-89776626D01*
X171270395Y-88900000D01*
X171629605Y-88900000D01*
X172506231Y-89776626D01*
X172700583Y-89713378D01*
X172806232Y-89871493D01*
X173018507Y-90083768D01*
X173268115Y-90250551D01*
X173545466Y-90365434D01*
X173839899Y-90424000D01*
X174140101Y-90424000D01*
X174434534Y-90365434D01*
X174711885Y-90250551D01*
X174961493Y-90083768D01*
X175173768Y-89871493D01*
X175260000Y-89742438D01*
X175346232Y-89871493D01*
X175558507Y-90083768D01*
X175808115Y-90250551D01*
X176085466Y-90365434D01*
X176379899Y-90424000D01*
X176680101Y-90424000D01*
X176974534Y-90365434D01*
X177251885Y-90250551D01*
X177501493Y-90083768D01*
X177713768Y-89871493D01*
X177880551Y-89621885D01*
X177995434Y-89344534D01*
X178054000Y-89050101D01*
X178054000Y-88749899D01*
X177995434Y-88455466D01*
X177880551Y-88178115D01*
X177713768Y-87928507D01*
X177501493Y-87716232D01*
X177251885Y-87549449D01*
X176974534Y-87434566D01*
X176680101Y-87376000D01*
X176379899Y-87376000D01*
X176085466Y-87434566D01*
X175808115Y-87549449D01*
X175558507Y-87716232D01*
X175346232Y-87928507D01*
X175260000Y-88057562D01*
X175173768Y-87928507D01*
X174961493Y-87716232D01*
X174711885Y-87549449D01*
X174434534Y-87434566D01*
X174140101Y-87376000D01*
X173839899Y-87376000D01*
X173545466Y-87434566D01*
X173268115Y-87549449D01*
X173018507Y-87716232D01*
X172806232Y-87928507D01*
X172700583Y-88086622D01*
X172506231Y-88023374D01*
X171629605Y-88900000D01*
X171270395Y-88900000D01*
X170393769Y-88023374D01*
X170199417Y-88086622D01*
X170093768Y-87928507D01*
X170009030Y-87843769D01*
X170573374Y-87843769D01*
X171450000Y-88720395D01*
X172326626Y-87843769D01*
X172244273Y-87590711D01*
X171973582Y-87460914D01*
X171682770Y-87386420D01*
X171383012Y-87370092D01*
X171085829Y-87412557D01*
X170802641Y-87512184D01*
X170655727Y-87590711D01*
X170573374Y-87843769D01*
X170009030Y-87843769D01*
X169881493Y-87716232D01*
X169631885Y-87549449D01*
X169354534Y-87434566D01*
X169060101Y-87376000D01*
X168759899Y-87376000D01*
X168465466Y-87434566D01*
X168188115Y-87549449D01*
X167938507Y-87716232D01*
X167726232Y-87928507D01*
X167640000Y-88057562D01*
X167553768Y-87928507D01*
X167341493Y-87716232D01*
X167091885Y-87549449D01*
X166814534Y-87434566D01*
X166520101Y-87376000D01*
X166219899Y-87376000D01*
X165925466Y-87434566D01*
X165648115Y-87549449D01*
X165398507Y-87716232D01*
X165186232Y-87928507D01*
X165080583Y-88086622D01*
X164886231Y-88023374D01*
X164009605Y-88900000D01*
X163650395Y-88900000D01*
X162773769Y-88023374D01*
X162579417Y-88086622D01*
X162473768Y-87928507D01*
X162389030Y-87843769D01*
X162953374Y-87843769D01*
X163830000Y-88720395D01*
X164706626Y-87843769D01*
X164624273Y-87590711D01*
X164353582Y-87460914D01*
X164062770Y-87386420D01*
X163763012Y-87370092D01*
X163465829Y-87412557D01*
X163182641Y-87512184D01*
X163035727Y-87590711D01*
X162953374Y-87843769D01*
X162389030Y-87843769D01*
X162261493Y-87716232D01*
X162011885Y-87549449D01*
X161734534Y-87434566D01*
X161440101Y-87376000D01*
X161139899Y-87376000D01*
X160845466Y-87434566D01*
X160568115Y-87549449D01*
X160318507Y-87716232D01*
X160106232Y-87928507D01*
X160020000Y-88057562D01*
X159933768Y-87928507D01*
X159721493Y-87716232D01*
X159471885Y-87549449D01*
X159194534Y-87434566D01*
X158900101Y-87376000D01*
X158599899Y-87376000D01*
X158305466Y-87434566D01*
X158028115Y-87549449D01*
X157778507Y-87716232D01*
X157566232Y-87928507D01*
X157399449Y-88178115D01*
X157284566Y-88455466D01*
X157226000Y-88749899D01*
X155306075Y-88749899D01*
X155233289Y-88613727D01*
X154980231Y-88531374D01*
X154103605Y-89408000D01*
X153744395Y-89408000D01*
X152867769Y-88531374D01*
X152673417Y-88594622D01*
X152567768Y-88436507D01*
X152355493Y-88224232D01*
X152226438Y-88138000D01*
X152355493Y-88051768D01*
X152483030Y-87924231D01*
X153047374Y-87924231D01*
X153116941Y-88138000D01*
X153047374Y-88351769D01*
X153924000Y-89228395D01*
X154800626Y-88351769D01*
X154731059Y-88138000D01*
X154800626Y-87924231D01*
X153924000Y-87047605D01*
X153047374Y-87924231D01*
X152483030Y-87924231D01*
X152567768Y-87839493D01*
X152673417Y-87681378D01*
X152867769Y-87744626D01*
X153744395Y-86868000D01*
X154103605Y-86868000D01*
X154980231Y-87744626D01*
X155233289Y-87662273D01*
X155363086Y-87391582D01*
X155437580Y-87100770D01*
X155453908Y-86801012D01*
X155411443Y-86503829D01*
X155311816Y-86220641D01*
X155233289Y-86073727D01*
X154980231Y-85991374D01*
X154103605Y-86868000D01*
X153744395Y-86868000D01*
X152867769Y-85991374D01*
X152673417Y-86054622D01*
X152567768Y-85896507D01*
X152355493Y-85684232D01*
X152226438Y-85598000D01*
X152355493Y-85511768D01*
X152483030Y-85384231D01*
X153047374Y-85384231D01*
X153116941Y-85598000D01*
X153047374Y-85811769D01*
X153924000Y-86688395D01*
X154800626Y-85811769D01*
X154731059Y-85598000D01*
X154800626Y-85384231D01*
X153924000Y-84507605D01*
X153047374Y-85384231D01*
X152483030Y-85384231D01*
X152567768Y-85299493D01*
X152673417Y-85141378D01*
X152867769Y-85204626D01*
X153744395Y-84328000D01*
X154103605Y-84328000D01*
X154980231Y-85204626D01*
X155233289Y-85122273D01*
X155363086Y-84851582D01*
X155437580Y-84560770D01*
X155453908Y-84261012D01*
X155411443Y-83963829D01*
X155311816Y-83680641D01*
X155233289Y-83533727D01*
X154980231Y-83451374D01*
X154103605Y-84328000D01*
X153744395Y-84328000D01*
X152867769Y-83451374D01*
X152673417Y-83514622D01*
X152567768Y-83356507D01*
X152355493Y-83144232D01*
X152226438Y-83058000D01*
X152355493Y-82971768D01*
X152483030Y-82844231D01*
X153047374Y-82844231D01*
X153116941Y-83058000D01*
X153047374Y-83271769D01*
X153924000Y-84148395D01*
X154800626Y-83271769D01*
X154731059Y-83058000D01*
X154800626Y-82844231D01*
X153924000Y-81967605D01*
X153047374Y-82844231D01*
X152483030Y-82844231D01*
X152567768Y-82759493D01*
X152673417Y-82601378D01*
X152867769Y-82664626D01*
X153744395Y-81788000D01*
X154103605Y-81788000D01*
X154980231Y-82664626D01*
X155233289Y-82582273D01*
X155363086Y-82311582D01*
X155437580Y-82020770D01*
X155453908Y-81721012D01*
X155411443Y-81423829D01*
X155311816Y-81140641D01*
X155233289Y-80993727D01*
X154980231Y-80911374D01*
X154103605Y-81788000D01*
X153744395Y-81788000D01*
X152867769Y-80911374D01*
X152673417Y-80974622D01*
X152567768Y-80816507D01*
X152355493Y-80604232D01*
X152226438Y-80518000D01*
X152355493Y-80431768D01*
X152483030Y-80304231D01*
X153047374Y-80304231D01*
X153116941Y-80518000D01*
X153047374Y-80731769D01*
X153924000Y-81608395D01*
X154800626Y-80731769D01*
X154731059Y-80518000D01*
X154800626Y-80304231D01*
X153924000Y-79427605D01*
X153047374Y-80304231D01*
X152483030Y-80304231D01*
X152567768Y-80219493D01*
X152673417Y-80061378D01*
X152867769Y-80124626D01*
X153744395Y-79248000D01*
X154103605Y-79248000D01*
X154980231Y-80124626D01*
X155233289Y-80042273D01*
X155363086Y-79771582D01*
X155437580Y-79480770D01*
X155453908Y-79181012D01*
X155411443Y-78883829D01*
X155311816Y-78600641D01*
X155233289Y-78453727D01*
X154980231Y-78371374D01*
X154103605Y-79248000D01*
X153744395Y-79248000D01*
X152867769Y-78371374D01*
X152673417Y-78434622D01*
X152567768Y-78276507D01*
X152483030Y-78191769D01*
X153047374Y-78191769D01*
X153924000Y-79068395D01*
X154800626Y-78191769D01*
X154718273Y-77938711D01*
X154447582Y-77808914D01*
X154156770Y-77734420D01*
X153857012Y-77718092D01*
X153559829Y-77760557D01*
X153276641Y-77860184D01*
X153129727Y-77938711D01*
X153047374Y-78191769D01*
X152483030Y-78191769D01*
X152355493Y-78064232D01*
X152105885Y-77897449D01*
X151828534Y-77782566D01*
X151534101Y-77724000D01*
X151233899Y-77724000D01*
X150939466Y-77782566D01*
X150662115Y-77897449D01*
X150412507Y-78064232D01*
X150200232Y-78276507D01*
X150033449Y-78526115D01*
X149918566Y-78803466D01*
X149860000Y-79097899D01*
X146075000Y-79097899D01*
X146075000Y-75979872D01*
X157785000Y-75979872D01*
X157785000Y-76420128D01*
X157870890Y-76851925D01*
X158039369Y-77258669D01*
X158283962Y-77624729D01*
X158595271Y-77936038D01*
X158961331Y-78180631D01*
X159368075Y-78349110D01*
X159799872Y-78435000D01*
X160240128Y-78435000D01*
X160671925Y-78349110D01*
X161078669Y-78180631D01*
X161444729Y-77936038D01*
X161756038Y-77624729D01*
X162000631Y-77258669D01*
X162169110Y-76851925D01*
X162255000Y-76420128D01*
X162255000Y-75979872D01*
X173025000Y-75979872D01*
X173025000Y-76420128D01*
X173110890Y-76851925D01*
X173279369Y-77258669D01*
X173523962Y-77624729D01*
X173835271Y-77936038D01*
X174201331Y-78180631D01*
X174608075Y-78349110D01*
X175039872Y-78435000D01*
X175480128Y-78435000D01*
X175911925Y-78349110D01*
X176318669Y-78180631D01*
X176684729Y-77936038D01*
X176996038Y-77624729D01*
X177240631Y-77258669D01*
X177409110Y-76851925D01*
X177495000Y-76420128D01*
X177495000Y-75979872D01*
X177409110Y-75548075D01*
X177240631Y-75141331D01*
X176996038Y-74775271D01*
X176684729Y-74463962D01*
X176318669Y-74219369D01*
X175911925Y-74050890D01*
X175480128Y-73965000D01*
X175039872Y-73965000D01*
X174608075Y-74050890D01*
X174201331Y-74219369D01*
X173835271Y-74463962D01*
X173523962Y-74775271D01*
X173279369Y-75141331D01*
X173110890Y-75548075D01*
X173025000Y-75979872D01*
X162255000Y-75979872D01*
X162169110Y-75548075D01*
X162000631Y-75141331D01*
X161756038Y-74775271D01*
X161444729Y-74463962D01*
X161078669Y-74219369D01*
X160671925Y-74050890D01*
X160240128Y-73965000D01*
X159799872Y-73965000D01*
X159368075Y-74050890D01*
X158961331Y-74219369D01*
X158595271Y-74463962D01*
X158283962Y-74775271D01*
X158039369Y-75141331D01*
X157870890Y-75548075D01*
X157785000Y-75979872D01*
X146075000Y-75979872D01*
X146075000Y-69844082D01*
X146172377Y-70333628D01*
X146461467Y-71031554D01*
X146881161Y-71659670D01*
X147415330Y-72193839D01*
X148043446Y-72613533D01*
X148741372Y-72902623D01*
X149482285Y-73050000D01*
X150237715Y-73050000D01*
X150978628Y-72902623D01*
X151676554Y-72613533D01*
X152304670Y-72193839D01*
X152838839Y-71659670D01*
X153258533Y-71031554D01*
X153547623Y-70333628D01*
X153695000Y-69592715D01*
X153695000Y-68837285D01*
X153547623Y-68096372D01*
X153258533Y-67398446D01*
X152838839Y-66770330D01*
X152304670Y-66236161D01*
X151676554Y-65816467D01*
X150978628Y-65527377D01*
X150489082Y-65430000D01*
X175265918Y-65430000D01*
X174776372Y-65527377D01*
G37*
X174776372Y-65527377D02*
X174078446Y-65816467D01*
X173450330Y-66236161D01*
X172916161Y-66770330D01*
X172496467Y-67398446D01*
X172207377Y-68096372D01*
X172060000Y-68837285D01*
X172060000Y-69592715D01*
X172207377Y-70333628D01*
X172496467Y-71031554D01*
X172916161Y-71659670D01*
X173450330Y-72193839D01*
X174078446Y-72613533D01*
X174776372Y-72902623D01*
X175517285Y-73050000D01*
X176272715Y-73050000D01*
X177013628Y-72902623D01*
X177711554Y-72613533D01*
X178339670Y-72193839D01*
X178873839Y-71659670D01*
X179293533Y-71031554D01*
X179582623Y-70333628D01*
X179680000Y-69844082D01*
X179680001Y-112400923D01*
X179582623Y-111911372D01*
X179293533Y-111213446D01*
X178873839Y-110585330D01*
X178339670Y-110051161D01*
X177711554Y-109631467D01*
X177013628Y-109342377D01*
X176272715Y-109195000D01*
X175517285Y-109195000D01*
X174776372Y-109342377D01*
X174078446Y-109631467D01*
X173450330Y-110051161D01*
X172916161Y-110585330D01*
X172496467Y-111213446D01*
X172207377Y-111911372D01*
X172060000Y-112652285D01*
X172060000Y-113407715D01*
X172207377Y-114148628D01*
X172496467Y-114846554D01*
X172916161Y-115474670D01*
X173450330Y-116008839D01*
X174078446Y-116428533D01*
X174776372Y-116717623D01*
X175265918Y-116815000D01*
X150489082Y-116815000D01*
X150978628Y-116717623D01*
X151676554Y-116428533D01*
X152304670Y-116008839D01*
X152838839Y-115474670D01*
X153258533Y-114846554D01*
X153547623Y-114148628D01*
X153695000Y-113407715D01*
X153695000Y-112652285D01*
X153547623Y-111911372D01*
X153258533Y-111213446D01*
X152838839Y-110585330D01*
X152304670Y-110051161D01*
X151676554Y-109631467D01*
X150978628Y-109342377D01*
X150237715Y-109195000D01*
X149482285Y-109195000D01*
X148741372Y-109342377D01*
X148043446Y-109631467D01*
X147415330Y-110051161D01*
X146881161Y-110585330D01*
X146461467Y-111213446D01*
X146172377Y-111911372D01*
X146075000Y-112400918D01*
X146075000Y-107055411D01*
X154609800Y-107055411D01*
X154609800Y-107320589D01*
X154661533Y-107580672D01*
X154763013Y-107825665D01*
X154910338Y-108046153D01*
X155097847Y-108233662D01*
X155318335Y-108380987D01*
X155563328Y-108482467D01*
X155823411Y-108534200D01*
X156088589Y-108534200D01*
X156348672Y-108482467D01*
X156593665Y-108380987D01*
X156814153Y-108233662D01*
X157001662Y-108046153D01*
X157148987Y-107825665D01*
X157250467Y-107580672D01*
X157302200Y-107320589D01*
X157302200Y-107055411D01*
X157250467Y-106795328D01*
X157148987Y-106550335D01*
X157001662Y-106329847D01*
X156814153Y-106142338D01*
X156593665Y-105995013D01*
X156348672Y-105893533D01*
X156088589Y-105841800D01*
X155823411Y-105841800D01*
X155563328Y-105893533D01*
X155318335Y-105995013D01*
X155097847Y-106142338D01*
X154910338Y-106329847D01*
X154763013Y-106550335D01*
X154661533Y-106795328D01*
X154609800Y-107055411D01*
X146075000Y-107055411D01*
X146075000Y-105005702D01*
X149086903Y-105005702D01*
X149158486Y-105249671D01*
X149413996Y-105370571D01*
X149688184Y-105439300D01*
X149970512Y-105453217D01*
X150250130Y-105411787D01*
X150516292Y-105316603D01*
X150641514Y-105249671D01*
X150713097Y-105005702D01*
X149900000Y-104192605D01*
X149086903Y-105005702D01*
X146075000Y-105005702D01*
X146075000Y-104083512D01*
X148459783Y-104083512D01*
X148501213Y-104363130D01*
X148596397Y-104629292D01*
X148663329Y-104754514D01*
X148907298Y-104826097D01*
X149720395Y-104013000D01*
X150079605Y-104013000D01*
X150892702Y-104826097D01*
X150961928Y-104805785D01*
X150961928Y-104813000D01*
X150974188Y-104937482D01*
X151010498Y-105057180D01*
X151069463Y-105167494D01*
X151148815Y-105264185D01*
X151245506Y-105343537D01*
X151355820Y-105402502D01*
X151475518Y-105438812D01*
X151600000Y-105451072D01*
X153200000Y-105451072D01*
X153324482Y-105438812D01*
X153444180Y-105402502D01*
X153554494Y-105343537D01*
X153651185Y-105264185D01*
X153730537Y-105167494D01*
X153783038Y-105069273D01*
X160413332Y-105069273D01*
X160474152Y-105304183D01*
X160714509Y-105416202D01*
X160972102Y-105479176D01*
X161237030Y-105490687D01*
X161499113Y-105450291D01*
X161748280Y-105359542D01*
X161851848Y-105304183D01*
X161912668Y-105069273D01*
X161163000Y-104319605D01*
X160413332Y-105069273D01*
X153783038Y-105069273D01*
X153789502Y-105057180D01*
X153825812Y-104937482D01*
X153838072Y-104813000D01*
X153838072Y-104214030D01*
X159812313Y-104214030D01*
X159852709Y-104476113D01*
X159943458Y-104725280D01*
X159998817Y-104828848D01*
X160233727Y-104889668D01*
X160983395Y-104140000D01*
X161342605Y-104140000D01*
X162092273Y-104889668D01*
X162327183Y-104828848D01*
X162439202Y-104588491D01*
X162502176Y-104330898D01*
X162513687Y-104065970D01*
X162473291Y-103803887D01*
X162382542Y-103554720D01*
X162327183Y-103451152D01*
X162092273Y-103390332D01*
X161342605Y-104140000D01*
X160983395Y-104140000D01*
X160233727Y-103390332D01*
X159998817Y-103451152D01*
X159886798Y-103691509D01*
X159823824Y-103949102D01*
X159812313Y-104214030D01*
X153838072Y-104214030D01*
X153838072Y-103213000D01*
X153825812Y-103088518D01*
X153789502Y-102968820D01*
X153730537Y-102858506D01*
X153651185Y-102761815D01*
X153554494Y-102682463D01*
X153444180Y-102623498D01*
X153324482Y-102587188D01*
X153200000Y-102574928D01*
X151600000Y-102574928D01*
X151475518Y-102587188D01*
X151355820Y-102623498D01*
X151245506Y-102682463D01*
X151148815Y-102761815D01*
X151069463Y-102858506D01*
X151010498Y-102968820D01*
X150974188Y-103088518D01*
X150961928Y-103213000D01*
X150961928Y-103220215D01*
X150892702Y-103199903D01*
X150079605Y-104013000D01*
X149720395Y-104013000D01*
X148907298Y-103199903D01*
X148663329Y-103271486D01*
X148542429Y-103526996D01*
X148473700Y-103801184D01*
X148459783Y-104083512D01*
X146075000Y-104083512D01*
X146075000Y-103020298D01*
X149086903Y-103020298D01*
X149900000Y-103833395D01*
X150713097Y-103020298D01*
X150641514Y-102776329D01*
X150386004Y-102655429D01*
X150111816Y-102586700D01*
X149829488Y-102572783D01*
X149549870Y-102614213D01*
X149283708Y-102709397D01*
X149158486Y-102776329D01*
X149086903Y-103020298D01*
X146075000Y-103020298D01*
X146075000Y-100705411D01*
X154609800Y-100705411D01*
X154609800Y-100970589D01*
X154661533Y-101230672D01*
X154763013Y-101475665D01*
X154910338Y-101696153D01*
X155097847Y-101883662D01*
X155318335Y-102030987D01*
X155563328Y-102132467D01*
X155823411Y-102184200D01*
X156088589Y-102184200D01*
X156348672Y-102132467D01*
X156593665Y-102030987D01*
X156814153Y-101883662D01*
X157001662Y-101696153D01*
X157148987Y-101475665D01*
X157250467Y-101230672D01*
X157302200Y-100970589D01*
X157302200Y-100705411D01*
X157250467Y-100445328D01*
X157148987Y-100200335D01*
X157001662Y-99979847D01*
X156814153Y-99792338D01*
X156593665Y-99645013D01*
X156348672Y-99543533D01*
X156088589Y-99491800D01*
X155823411Y-99491800D01*
X155563328Y-99543533D01*
X155318335Y-99645013D01*
X155097847Y-99792338D01*
X154910338Y-99979847D01*
X154763013Y-100200335D01*
X154661533Y-100445328D01*
X154609800Y-100705411D01*
X146075000Y-100705411D01*
X146075000Y-98782702D01*
X150991903Y-98782702D01*
X151063486Y-99026671D01*
X151318996Y-99147571D01*
X151593184Y-99216300D01*
X151875512Y-99230217D01*
X152155130Y-99188787D01*
X152421292Y-99093603D01*
X152546514Y-99026671D01*
X152618097Y-98782702D01*
X151805000Y-97969605D01*
X150991903Y-98782702D01*
X146075000Y-98782702D01*
X146075000Y-97860512D01*
X150364783Y-97860512D01*
X150406213Y-98140130D01*
X150501397Y-98406292D01*
X150568329Y-98531514D01*
X150812298Y-98603097D01*
X151625395Y-97790000D01*
X151984605Y-97790000D01*
X152797702Y-98603097D01*
X153041671Y-98531514D01*
X153055324Y-98502659D01*
X153190363Y-98704759D01*
X153390241Y-98904637D01*
X153625273Y-99061680D01*
X153886426Y-99169853D01*
X154163665Y-99225000D01*
X154446335Y-99225000D01*
X154723574Y-99169853D01*
X154984727Y-99061680D01*
X155219759Y-98904637D01*
X155419637Y-98704759D01*
X155576680Y-98469727D01*
X155684853Y-98208574D01*
X155740000Y-97931335D01*
X155740000Y-97648665D01*
X155684853Y-97371426D01*
X155576680Y-97110273D01*
X155419637Y-96875241D01*
X155219759Y-96675363D01*
X154984727Y-96518320D01*
X154723574Y-96410147D01*
X154609274Y-96387411D01*
X159816800Y-96387411D01*
X159816800Y-96652589D01*
X159868533Y-96912672D01*
X159970013Y-97157665D01*
X160117338Y-97378153D01*
X160304847Y-97565662D01*
X160525335Y-97712987D01*
X160711260Y-97790000D01*
X160525335Y-97867013D01*
X160304847Y-98014338D01*
X160117338Y-98201847D01*
X159970013Y-98422335D01*
X159868533Y-98667328D01*
X159816800Y-98927411D01*
X159816800Y-99192589D01*
X159868533Y-99452672D01*
X159970013Y-99697665D01*
X160117338Y-99918153D01*
X160304847Y-100105662D01*
X160525335Y-100252987D01*
X160711260Y-100330000D01*
X160525335Y-100407013D01*
X160304847Y-100554338D01*
X160117338Y-100741847D01*
X159970013Y-100962335D01*
X159868533Y-101207328D01*
X159816800Y-101467411D01*
X159816800Y-101732589D01*
X159868533Y-101992672D01*
X159970013Y-102237665D01*
X160117338Y-102458153D01*
X160304847Y-102645662D01*
X160525335Y-102792987D01*
X160713600Y-102870969D01*
X160577720Y-102920458D01*
X160474152Y-102975817D01*
X160413332Y-103210727D01*
X161163000Y-103960395D01*
X161912668Y-103210727D01*
X161851848Y-102975817D01*
X161620066Y-102867794D01*
X161800665Y-102792987D01*
X162021153Y-102645662D01*
X162208662Y-102458153D01*
X162355987Y-102237665D01*
X162457467Y-101992672D01*
X162509200Y-101732589D01*
X162509200Y-101467411D01*
X162457467Y-101207328D01*
X162355987Y-100962335D01*
X162208662Y-100741847D01*
X162021153Y-100554338D01*
X161800665Y-100407013D01*
X161614740Y-100330000D01*
X161800665Y-100252987D01*
X162021153Y-100105662D01*
X162208662Y-99918153D01*
X162355987Y-99697665D01*
X162457467Y-99452672D01*
X162509200Y-99192589D01*
X162509200Y-98927411D01*
X162457467Y-98667328D01*
X162355987Y-98422335D01*
X162208662Y-98201847D01*
X162021153Y-98014338D01*
X161800665Y-97867013D01*
X161614740Y-97790000D01*
X161800665Y-97712987D01*
X162021153Y-97565662D01*
X162208662Y-97378153D01*
X162355987Y-97157665D01*
X162457467Y-96912672D01*
X162509200Y-96652589D01*
X162509200Y-96387411D01*
X162457467Y-96127328D01*
X162355987Y-95882335D01*
X162208662Y-95661847D01*
X162021153Y-95474338D01*
X161800665Y-95327013D01*
X161555672Y-95225533D01*
X161295589Y-95173800D01*
X161030411Y-95173800D01*
X160770328Y-95225533D01*
X160525335Y-95327013D01*
X160304847Y-95474338D01*
X160117338Y-95661847D01*
X159970013Y-95882335D01*
X159868533Y-96127328D01*
X159816800Y-96387411D01*
X154609274Y-96387411D01*
X154446335Y-96355000D01*
X154163665Y-96355000D01*
X153886426Y-96410147D01*
X153625273Y-96518320D01*
X153390241Y-96675363D01*
X153190363Y-96875241D01*
X153056308Y-97075869D01*
X153041671Y-97048486D01*
X152797702Y-96976903D01*
X151984605Y-97790000D01*
X151625395Y-97790000D01*
X150812298Y-96976903D01*
X150568329Y-97048486D01*
X150447429Y-97303996D01*
X150378700Y-97578184D01*
X150364783Y-97860512D01*
X146075000Y-97860512D01*
X146075000Y-96797298D01*
X150991903Y-96797298D01*
X151805000Y-97610395D01*
X152618097Y-96797298D01*
X152546514Y-96553329D01*
X152291004Y-96432429D01*
X152016816Y-96363700D01*
X151734488Y-96349783D01*
X151454870Y-96391213D01*
X151188708Y-96486397D01*
X151063486Y-96553329D01*
X150991903Y-96797298D01*
X146075000Y-96797298D01*
X146075000Y-79097899D01*
X149860000Y-79097899D01*
X149860000Y-79398101D01*
X149918566Y-79692534D01*
X150033449Y-79969885D01*
X150200232Y-80219493D01*
X150412507Y-80431768D01*
X150541562Y-80518000D01*
X150412507Y-80604232D01*
X150200232Y-80816507D01*
X150033449Y-81066115D01*
X149918566Y-81343466D01*
X149860000Y-81637899D01*
X149860000Y-81938101D01*
X149918566Y-82232534D01*
X150033449Y-82509885D01*
X150200232Y-82759493D01*
X150412507Y-82971768D01*
X150541562Y-83058000D01*
X150412507Y-83144232D01*
X150200232Y-83356507D01*
X150033449Y-83606115D01*
X149918566Y-83883466D01*
X149860000Y-84177899D01*
X149860000Y-84478101D01*
X149918566Y-84772534D01*
X150033449Y-85049885D01*
X150200232Y-85299493D01*
X150412507Y-85511768D01*
X150541562Y-85598000D01*
X150412507Y-85684232D01*
X150200232Y-85896507D01*
X150033449Y-86146115D01*
X149918566Y-86423466D01*
X149860000Y-86717899D01*
X149860000Y-87018101D01*
X149918566Y-87312534D01*
X150033449Y-87589885D01*
X150200232Y-87839493D01*
X150412507Y-88051768D01*
X150541562Y-88138000D01*
X150412507Y-88224232D01*
X150200232Y-88436507D01*
X150033449Y-88686115D01*
X149918566Y-88963466D01*
X149860000Y-89257899D01*
X149860000Y-89558101D01*
X149918566Y-89852534D01*
X150033449Y-90129885D01*
X150200232Y-90379493D01*
X150412507Y-90591768D01*
X150662115Y-90758551D01*
X150939466Y-90873434D01*
X151233899Y-90932000D01*
X151534101Y-90932000D01*
X151828534Y-90873434D01*
X152105885Y-90758551D01*
X152355493Y-90591768D01*
X152483030Y-90464231D01*
X153047374Y-90464231D01*
X153129727Y-90717289D01*
X153400418Y-90847086D01*
X153691230Y-90921580D01*
X153990988Y-90937908D01*
X154288171Y-90895443D01*
X154571359Y-90795816D01*
X154718273Y-90717289D01*
X154800626Y-90464231D01*
X153924000Y-89587605D01*
X153047374Y-90464231D01*
X152483030Y-90464231D01*
X152567768Y-90379493D01*
X152673417Y-90221378D01*
X152867769Y-90284626D01*
X153744395Y-89408000D01*
X154103605Y-89408000D01*
X154980231Y-90284626D01*
X155233289Y-90202273D01*
X155363086Y-89931582D01*
X155437580Y-89640770D01*
X155453908Y-89341012D01*
X155411443Y-89043829D01*
X155311816Y-88760641D01*
X155306075Y-88749899D01*
X157226000Y-88749899D01*
X157226000Y-89050101D01*
X157284566Y-89344534D01*
X157399449Y-89621885D01*
X157566232Y-89871493D01*
X157778507Y-90083768D01*
X158028115Y-90250551D01*
X158305466Y-90365434D01*
X158599899Y-90424000D01*
X158900101Y-90424000D01*
X159194534Y-90365434D01*
X159471885Y-90250551D01*
X159721493Y-90083768D01*
X159933768Y-89871493D01*
X160020000Y-89742438D01*
X160106232Y-89871493D01*
X160318507Y-90083768D01*
X160568115Y-90250551D01*
X160845466Y-90365434D01*
X161139899Y-90424000D01*
X161440101Y-90424000D01*
X161734534Y-90365434D01*
X162011885Y-90250551D01*
X162261493Y-90083768D01*
X162389030Y-89956231D01*
X162953374Y-89956231D01*
X163035727Y-90209289D01*
X163306418Y-90339086D01*
X163597230Y-90413580D01*
X163896988Y-90429908D01*
X164194171Y-90387443D01*
X164477359Y-90287816D01*
X164624273Y-90209289D01*
X164706626Y-89956231D01*
X163830000Y-89079605D01*
X162953374Y-89956231D01*
X162389030Y-89956231D01*
X162473768Y-89871493D01*
X162579417Y-89713378D01*
X162773769Y-89776626D01*
X163650395Y-88900000D01*
X164009605Y-88900000D01*
X164886231Y-89776626D01*
X165080583Y-89713378D01*
X165186232Y-89871493D01*
X165398507Y-90083768D01*
X165648115Y-90250551D01*
X165925466Y-90365434D01*
X166219899Y-90424000D01*
X166520101Y-90424000D01*
X166814534Y-90365434D01*
X167091885Y-90250551D01*
X167341493Y-90083768D01*
X167553768Y-89871493D01*
X167640000Y-89742438D01*
X167726232Y-89871493D01*
X167938507Y-90083768D01*
X168188115Y-90250551D01*
X168465466Y-90365434D01*
X168759899Y-90424000D01*
X169060101Y-90424000D01*
X169354534Y-90365434D01*
X169631885Y-90250551D01*
X169881493Y-90083768D01*
X170009030Y-89956231D01*
X170573374Y-89956231D01*
X170655727Y-90209289D01*
X170926418Y-90339086D01*
X171217230Y-90413580D01*
X171516988Y-90429908D01*
X171814171Y-90387443D01*
X172097359Y-90287816D01*
X172244273Y-90209289D01*
X172326626Y-89956231D01*
X171450000Y-89079605D01*
X170573374Y-89956231D01*
X170009030Y-89956231D01*
X170093768Y-89871493D01*
X170199417Y-89713378D01*
X170393769Y-89776626D01*
X171270395Y-88900000D01*
X171629605Y-88900000D01*
X172506231Y-89776626D01*
X172700583Y-89713378D01*
X172806232Y-89871493D01*
X173018507Y-90083768D01*
X173268115Y-90250551D01*
X173545466Y-90365434D01*
X173839899Y-90424000D01*
X174140101Y-90424000D01*
X174434534Y-90365434D01*
X174711885Y-90250551D01*
X174961493Y-90083768D01*
X175173768Y-89871493D01*
X175260000Y-89742438D01*
X175346232Y-89871493D01*
X175558507Y-90083768D01*
X175808115Y-90250551D01*
X176085466Y-90365434D01*
X176379899Y-90424000D01*
X176680101Y-90424000D01*
X176974534Y-90365434D01*
X177251885Y-90250551D01*
X177501493Y-90083768D01*
X177713768Y-89871493D01*
X177880551Y-89621885D01*
X177995434Y-89344534D01*
X178054000Y-89050101D01*
X178054000Y-88749899D01*
X177995434Y-88455466D01*
X177880551Y-88178115D01*
X177713768Y-87928507D01*
X177501493Y-87716232D01*
X177251885Y-87549449D01*
X176974534Y-87434566D01*
X176680101Y-87376000D01*
X176379899Y-87376000D01*
X176085466Y-87434566D01*
X175808115Y-87549449D01*
X175558507Y-87716232D01*
X175346232Y-87928507D01*
X175260000Y-88057562D01*
X175173768Y-87928507D01*
X174961493Y-87716232D01*
X174711885Y-87549449D01*
X174434534Y-87434566D01*
X174140101Y-87376000D01*
X173839899Y-87376000D01*
X173545466Y-87434566D01*
X173268115Y-87549449D01*
X173018507Y-87716232D01*
X172806232Y-87928507D01*
X172700583Y-88086622D01*
X172506231Y-88023374D01*
X171629605Y-88900000D01*
X171270395Y-88900000D01*
X170393769Y-88023374D01*
X170199417Y-88086622D01*
X170093768Y-87928507D01*
X170009030Y-87843769D01*
X170573374Y-87843769D01*
X171450000Y-88720395D01*
X172326626Y-87843769D01*
X172244273Y-87590711D01*
X171973582Y-87460914D01*
X171682770Y-87386420D01*
X171383012Y-87370092D01*
X171085829Y-87412557D01*
X170802641Y-87512184D01*
X170655727Y-87590711D01*
X170573374Y-87843769D01*
X170009030Y-87843769D01*
X169881493Y-87716232D01*
X169631885Y-87549449D01*
X169354534Y-87434566D01*
X169060101Y-87376000D01*
X168759899Y-87376000D01*
X168465466Y-87434566D01*
X168188115Y-87549449D01*
X167938507Y-87716232D01*
X167726232Y-87928507D01*
X167640000Y-88057562D01*
X167553768Y-87928507D01*
X167341493Y-87716232D01*
X167091885Y-87549449D01*
X166814534Y-87434566D01*
X166520101Y-87376000D01*
X166219899Y-87376000D01*
X165925466Y-87434566D01*
X165648115Y-87549449D01*
X165398507Y-87716232D01*
X165186232Y-87928507D01*
X165080583Y-88086622D01*
X164886231Y-88023374D01*
X164009605Y-88900000D01*
X163650395Y-88900000D01*
X162773769Y-88023374D01*
X162579417Y-88086622D01*
X162473768Y-87928507D01*
X162389030Y-87843769D01*
X162953374Y-87843769D01*
X163830000Y-88720395D01*
X164706626Y-87843769D01*
X164624273Y-87590711D01*
X164353582Y-87460914D01*
X164062770Y-87386420D01*
X163763012Y-87370092D01*
X163465829Y-87412557D01*
X163182641Y-87512184D01*
X163035727Y-87590711D01*
X162953374Y-87843769D01*
X162389030Y-87843769D01*
X162261493Y-87716232D01*
X162011885Y-87549449D01*
X161734534Y-87434566D01*
X161440101Y-87376000D01*
X161139899Y-87376000D01*
X160845466Y-87434566D01*
X160568115Y-87549449D01*
X160318507Y-87716232D01*
X160106232Y-87928507D01*
X160020000Y-88057562D01*
X159933768Y-87928507D01*
X159721493Y-87716232D01*
X159471885Y-87549449D01*
X159194534Y-87434566D01*
X158900101Y-87376000D01*
X158599899Y-87376000D01*
X158305466Y-87434566D01*
X158028115Y-87549449D01*
X157778507Y-87716232D01*
X157566232Y-87928507D01*
X157399449Y-88178115D01*
X157284566Y-88455466D01*
X157226000Y-88749899D01*
X155306075Y-88749899D01*
X155233289Y-88613727D01*
X154980231Y-88531374D01*
X154103605Y-89408000D01*
X153744395Y-89408000D01*
X152867769Y-88531374D01*
X152673417Y-88594622D01*
X152567768Y-88436507D01*
X152355493Y-88224232D01*
X152226438Y-88138000D01*
X152355493Y-88051768D01*
X152483030Y-87924231D01*
X153047374Y-87924231D01*
X153116941Y-88138000D01*
X153047374Y-88351769D01*
X153924000Y-89228395D01*
X154800626Y-88351769D01*
X154731059Y-88138000D01*
X154800626Y-87924231D01*
X153924000Y-87047605D01*
X153047374Y-87924231D01*
X152483030Y-87924231D01*
X152567768Y-87839493D01*
X152673417Y-87681378D01*
X152867769Y-87744626D01*
X153744395Y-86868000D01*
X154103605Y-86868000D01*
X154980231Y-87744626D01*
X155233289Y-87662273D01*
X155363086Y-87391582D01*
X155437580Y-87100770D01*
X155453908Y-86801012D01*
X155411443Y-86503829D01*
X155311816Y-86220641D01*
X155233289Y-86073727D01*
X154980231Y-85991374D01*
X154103605Y-86868000D01*
X153744395Y-86868000D01*
X152867769Y-85991374D01*
X152673417Y-86054622D01*
X152567768Y-85896507D01*
X152355493Y-85684232D01*
X152226438Y-85598000D01*
X152355493Y-85511768D01*
X152483030Y-85384231D01*
X153047374Y-85384231D01*
X153116941Y-85598000D01*
X153047374Y-85811769D01*
X153924000Y-86688395D01*
X154800626Y-85811769D01*
X154731059Y-85598000D01*
X154800626Y-85384231D01*
X153924000Y-84507605D01*
X153047374Y-85384231D01*
X152483030Y-85384231D01*
X152567768Y-85299493D01*
X152673417Y-85141378D01*
X152867769Y-85204626D01*
X153744395Y-84328000D01*
X154103605Y-84328000D01*
X154980231Y-85204626D01*
X155233289Y-85122273D01*
X155363086Y-84851582D01*
X155437580Y-84560770D01*
X155453908Y-84261012D01*
X155411443Y-83963829D01*
X155311816Y-83680641D01*
X155233289Y-83533727D01*
X154980231Y-83451374D01*
X154103605Y-84328000D01*
X153744395Y-84328000D01*
X152867769Y-83451374D01*
X152673417Y-83514622D01*
X152567768Y-83356507D01*
X152355493Y-83144232D01*
X152226438Y-83058000D01*
X152355493Y-82971768D01*
X152483030Y-82844231D01*
X153047374Y-82844231D01*
X153116941Y-83058000D01*
X153047374Y-83271769D01*
X153924000Y-84148395D01*
X154800626Y-83271769D01*
X154731059Y-83058000D01*
X154800626Y-82844231D01*
X153924000Y-81967605D01*
X153047374Y-82844231D01*
X152483030Y-82844231D01*
X152567768Y-82759493D01*
X152673417Y-82601378D01*
X152867769Y-82664626D01*
X153744395Y-81788000D01*
X154103605Y-81788000D01*
X154980231Y-82664626D01*
X155233289Y-82582273D01*
X155363086Y-82311582D01*
X155437580Y-82020770D01*
X155453908Y-81721012D01*
X155411443Y-81423829D01*
X155311816Y-81140641D01*
X155233289Y-80993727D01*
X154980231Y-80911374D01*
X154103605Y-81788000D01*
X153744395Y-81788000D01*
X152867769Y-80911374D01*
X152673417Y-80974622D01*
X152567768Y-80816507D01*
X152355493Y-80604232D01*
X152226438Y-80518000D01*
X152355493Y-80431768D01*
X152483030Y-80304231D01*
X153047374Y-80304231D01*
X153116941Y-80518000D01*
X153047374Y-80731769D01*
X153924000Y-81608395D01*
X154800626Y-80731769D01*
X154731059Y-80518000D01*
X154800626Y-80304231D01*
X153924000Y-79427605D01*
X153047374Y-80304231D01*
X152483030Y-80304231D01*
X152567768Y-80219493D01*
X152673417Y-80061378D01*
X152867769Y-80124626D01*
X153744395Y-79248000D01*
X154103605Y-79248000D01*
X154980231Y-80124626D01*
X155233289Y-80042273D01*
X155363086Y-79771582D01*
X155437580Y-79480770D01*
X155453908Y-79181012D01*
X155411443Y-78883829D01*
X155311816Y-78600641D01*
X155233289Y-78453727D01*
X154980231Y-78371374D01*
X154103605Y-79248000D01*
X153744395Y-79248000D01*
X152867769Y-78371374D01*
X152673417Y-78434622D01*
X152567768Y-78276507D01*
X152483030Y-78191769D01*
X153047374Y-78191769D01*
X153924000Y-79068395D01*
X154800626Y-78191769D01*
X154718273Y-77938711D01*
X154447582Y-77808914D01*
X154156770Y-77734420D01*
X153857012Y-77718092D01*
X153559829Y-77760557D01*
X153276641Y-77860184D01*
X153129727Y-77938711D01*
X153047374Y-78191769D01*
X152483030Y-78191769D01*
X152355493Y-78064232D01*
X152105885Y-77897449D01*
X151828534Y-77782566D01*
X151534101Y-77724000D01*
X151233899Y-77724000D01*
X150939466Y-77782566D01*
X150662115Y-77897449D01*
X150412507Y-78064232D01*
X150200232Y-78276507D01*
X150033449Y-78526115D01*
X149918566Y-78803466D01*
X149860000Y-79097899D01*
X146075000Y-79097899D01*
X146075000Y-75979872D01*
X157785000Y-75979872D01*
X157785000Y-76420128D01*
X157870890Y-76851925D01*
X158039369Y-77258669D01*
X158283962Y-77624729D01*
X158595271Y-77936038D01*
X158961331Y-78180631D01*
X159368075Y-78349110D01*
X159799872Y-78435000D01*
X160240128Y-78435000D01*
X160671925Y-78349110D01*
X161078669Y-78180631D01*
X161444729Y-77936038D01*
X161756038Y-77624729D01*
X162000631Y-77258669D01*
X162169110Y-76851925D01*
X162255000Y-76420128D01*
X162255000Y-75979872D01*
X173025000Y-75979872D01*
X173025000Y-76420128D01*
X173110890Y-76851925D01*
X173279369Y-77258669D01*
X173523962Y-77624729D01*
X173835271Y-77936038D01*
X174201331Y-78180631D01*
X174608075Y-78349110D01*
X175039872Y-78435000D01*
X175480128Y-78435000D01*
X175911925Y-78349110D01*
X176318669Y-78180631D01*
X176684729Y-77936038D01*
X176996038Y-77624729D01*
X177240631Y-77258669D01*
X177409110Y-76851925D01*
X177495000Y-76420128D01*
X177495000Y-75979872D01*
X177409110Y-75548075D01*
X177240631Y-75141331D01*
X176996038Y-74775271D01*
X176684729Y-74463962D01*
X176318669Y-74219369D01*
X175911925Y-74050890D01*
X175480128Y-73965000D01*
X175039872Y-73965000D01*
X174608075Y-74050890D01*
X174201331Y-74219369D01*
X173835271Y-74463962D01*
X173523962Y-74775271D01*
X173279369Y-75141331D01*
X173110890Y-75548075D01*
X173025000Y-75979872D01*
X162255000Y-75979872D01*
X162169110Y-75548075D01*
X162000631Y-75141331D01*
X161756038Y-74775271D01*
X161444729Y-74463962D01*
X161078669Y-74219369D01*
X160671925Y-74050890D01*
X160240128Y-73965000D01*
X159799872Y-73965000D01*
X159368075Y-74050890D01*
X158961331Y-74219369D01*
X158595271Y-74463962D01*
X158283962Y-74775271D01*
X158039369Y-75141331D01*
X157870890Y-75548075D01*
X157785000Y-75979872D01*
X146075000Y-75979872D01*
X146075000Y-69844082D01*
X146172377Y-70333628D01*
X146461467Y-71031554D01*
X146881161Y-71659670D01*
X147415330Y-72193839D01*
X148043446Y-72613533D01*
X148741372Y-72902623D01*
X149482285Y-73050000D01*
X150237715Y-73050000D01*
X150978628Y-72902623D01*
X151676554Y-72613533D01*
X152304670Y-72193839D01*
X152838839Y-71659670D01*
X153258533Y-71031554D01*
X153547623Y-70333628D01*
X153695000Y-69592715D01*
X153695000Y-68837285D01*
X153547623Y-68096372D01*
X153258533Y-67398446D01*
X152838839Y-66770330D01*
X152304670Y-66236161D01*
X151676554Y-65816467D01*
X150978628Y-65527377D01*
X150489082Y-65430000D01*
X175265918Y-65430000D01*
X174776372Y-65527377D01*
%TD*%
M02*
