%TF.GenerationSoftware,KiCad,Pcbnew,(5.1.6)-1*%
%TF.CreationDate,2020-11-07T19:51:12-05:00*%
%TF.ProjectId,SatelliteMush,53617465-6c6c-4697-9465-4d7573682e6b,rev?*%
%TF.SameCoordinates,Original*%
%TF.FileFunction,Legend,Top*%
%TF.FilePolarity,Positive*%
%FSLAX46Y46*%
G04 Gerber Fmt 4.6, Leading zero omitted, Abs format (unit mm)*
G04 Created by KiCad (PCBNEW (5.1.6)-1) date 2020-11-07 19:51:12*
%MOMM*%
%LPD*%
G01*
G04 APERTURE LIST*
%ADD10C,0.190500*%
%ADD11C,0.254000*%
%ADD12C,0.120000*%
%ADD13C,0.150000*%
G04 APERTURE END LIST*
D10*
X173826714Y-108905504D02*
X173826714Y-107937885D01*
X174310523Y-106425981D02*
X173040523Y-106267231D01*
X173947666Y-105957290D01*
X173040523Y-105420564D01*
X174310523Y-105579314D01*
X174310523Y-104430266D02*
X173645285Y-104347112D01*
X173524333Y-104392469D01*
X173463857Y-104505862D01*
X173463857Y-104747766D01*
X173524333Y-104876278D01*
X174250047Y-104422707D02*
X174310523Y-104551219D01*
X174310523Y-104853600D01*
X174250047Y-104966993D01*
X174129095Y-105012350D01*
X174008142Y-104997231D01*
X173887190Y-104921635D01*
X173826714Y-104793123D01*
X173826714Y-104490743D01*
X173766238Y-104362231D01*
X174250047Y-103878421D02*
X174310523Y-103765028D01*
X174310523Y-103523123D01*
X174250047Y-103394612D01*
X174129095Y-103319016D01*
X174068619Y-103311457D01*
X173947666Y-103356814D01*
X173887190Y-103470207D01*
X173887190Y-103651635D01*
X173826714Y-103765028D01*
X173705761Y-103810385D01*
X173645285Y-103802826D01*
X173524333Y-103727231D01*
X173463857Y-103598719D01*
X173463857Y-103417290D01*
X173524333Y-103303897D01*
X174310523Y-102615981D02*
X174250047Y-102729373D01*
X174189571Y-102782290D01*
X174068619Y-102827647D01*
X173705761Y-102782290D01*
X173584809Y-102706695D01*
X173524333Y-102638659D01*
X173463857Y-102510147D01*
X173463857Y-102328719D01*
X173524333Y-102215326D01*
X173584809Y-102162409D01*
X173705761Y-102117052D01*
X174068619Y-102162409D01*
X174189571Y-102238004D01*
X174250047Y-102306040D01*
X174310523Y-102434552D01*
X174310523Y-102615981D01*
X173463857Y-101542528D02*
X174310523Y-101648362D01*
X173584809Y-101557647D02*
X173524333Y-101489612D01*
X173463857Y-101361100D01*
X173463857Y-101179671D01*
X173524333Y-101066278D01*
X173645285Y-101020921D01*
X174310523Y-101104076D01*
X174310523Y-99531695D02*
X173040523Y-99372945D01*
X173947666Y-99063004D01*
X173040523Y-98526278D01*
X174310523Y-98685028D01*
X174310523Y-97535981D02*
X173645285Y-97452826D01*
X173524333Y-97498183D01*
X173463857Y-97611576D01*
X173463857Y-97853481D01*
X173524333Y-97981993D01*
X174250047Y-97528421D02*
X174310523Y-97656933D01*
X174310523Y-97959314D01*
X174250047Y-98072707D01*
X174129095Y-98118064D01*
X174008142Y-98102945D01*
X173887190Y-98027350D01*
X173826714Y-97898838D01*
X173826714Y-97596457D01*
X173766238Y-97467945D01*
X173463857Y-96946338D02*
X174310523Y-96749790D01*
X173463857Y-96341576D02*
X174310523Y-96749790D01*
X174612904Y-96908540D01*
X174673380Y-96976576D01*
X174733857Y-97105088D01*
X173826714Y-94935504D02*
X173826714Y-93967885D01*
D11*
X169675023Y-105004809D02*
X168405023Y-105004809D01*
X169312166Y-104581476D01*
X168405023Y-104158142D01*
X169675023Y-104158142D01*
X168828357Y-103009095D02*
X169675023Y-103009095D01*
X168828357Y-103553380D02*
X169493595Y-103553380D01*
X169614547Y-103492904D01*
X169675023Y-103371952D01*
X169675023Y-103190523D01*
X169614547Y-103069571D01*
X169554071Y-103009095D01*
X169614547Y-102464809D02*
X169675023Y-102343857D01*
X169675023Y-102101952D01*
X169614547Y-101981000D01*
X169493595Y-101920523D01*
X169433119Y-101920523D01*
X169312166Y-101981000D01*
X169251690Y-102101952D01*
X169251690Y-102283380D01*
X169191214Y-102404333D01*
X169070261Y-102464809D01*
X169009785Y-102464809D01*
X168888833Y-102404333D01*
X168828357Y-102283380D01*
X168828357Y-102101952D01*
X168888833Y-101981000D01*
X169675023Y-101376238D02*
X168405023Y-101376238D01*
X169675023Y-100831952D02*
X169009785Y-100831952D01*
X168888833Y-100892428D01*
X168828357Y-101013380D01*
X168828357Y-101194809D01*
X168888833Y-101315761D01*
X168949309Y-101376238D01*
X169675023Y-99622428D02*
X169675023Y-100227190D01*
X168405023Y-100227190D01*
X168828357Y-98654809D02*
X169675023Y-98654809D01*
X168828357Y-99199095D02*
X169493595Y-99199095D01*
X169614547Y-99138619D01*
X169675023Y-99017666D01*
X169675023Y-98836238D01*
X169614547Y-98715285D01*
X169554071Y-98654809D01*
X168828357Y-98171000D02*
X169675023Y-97868619D01*
X168828357Y-97566238D01*
X171773547Y-110236000D02*
X171834023Y-110054571D01*
X171834023Y-109752190D01*
X171773547Y-109631238D01*
X171713071Y-109570761D01*
X171592119Y-109510285D01*
X171471166Y-109510285D01*
X171350214Y-109570761D01*
X171289738Y-109631238D01*
X171229261Y-109752190D01*
X171168785Y-109994095D01*
X171108309Y-110115047D01*
X171047833Y-110175523D01*
X170926880Y-110236000D01*
X170805928Y-110236000D01*
X170684976Y-110175523D01*
X170624500Y-110115047D01*
X170564023Y-109994095D01*
X170564023Y-109691714D01*
X170624500Y-109510285D01*
X171834023Y-108421714D02*
X171168785Y-108421714D01*
X171047833Y-108482190D01*
X170987357Y-108603142D01*
X170987357Y-108845047D01*
X171047833Y-108966000D01*
X171773547Y-108421714D02*
X171834023Y-108542666D01*
X171834023Y-108845047D01*
X171773547Y-108966000D01*
X171652595Y-109026476D01*
X171531642Y-109026476D01*
X171410690Y-108966000D01*
X171350214Y-108845047D01*
X171350214Y-108542666D01*
X171289738Y-108421714D01*
X170987357Y-107998380D02*
X170987357Y-107514571D01*
X170564023Y-107816952D02*
X171652595Y-107816952D01*
X171773547Y-107756476D01*
X171834023Y-107635523D01*
X171834023Y-107514571D01*
X171773547Y-106607428D02*
X171834023Y-106728380D01*
X171834023Y-106970285D01*
X171773547Y-107091238D01*
X171652595Y-107151714D01*
X171168785Y-107151714D01*
X171047833Y-107091238D01*
X170987357Y-106970285D01*
X170987357Y-106728380D01*
X171047833Y-106607428D01*
X171168785Y-106546952D01*
X171289738Y-106546952D01*
X171410690Y-107151714D01*
X171834023Y-105821238D02*
X171773547Y-105942190D01*
X171652595Y-106002666D01*
X170564023Y-106002666D01*
X171834023Y-105156000D02*
X171773547Y-105276952D01*
X171652595Y-105337428D01*
X170564023Y-105337428D01*
X171834023Y-104672190D02*
X170987357Y-104672190D01*
X170564023Y-104672190D02*
X170624500Y-104732666D01*
X170684976Y-104672190D01*
X170624500Y-104611714D01*
X170564023Y-104672190D01*
X170684976Y-104672190D01*
X170987357Y-104248857D02*
X170987357Y-103765047D01*
X170564023Y-104067428D02*
X171652595Y-104067428D01*
X171773547Y-104006952D01*
X171834023Y-103886000D01*
X171834023Y-103765047D01*
X171773547Y-102857904D02*
X171834023Y-102978857D01*
X171834023Y-103220761D01*
X171773547Y-103341714D01*
X171652595Y-103402190D01*
X171168785Y-103402190D01*
X171047833Y-103341714D01*
X170987357Y-103220761D01*
X170987357Y-102978857D01*
X171047833Y-102857904D01*
X171168785Y-102797428D01*
X171289738Y-102797428D01*
X171410690Y-103402190D01*
X171168785Y-100862190D02*
X171229261Y-100680761D01*
X171289738Y-100620285D01*
X171410690Y-100559809D01*
X171592119Y-100559809D01*
X171713071Y-100620285D01*
X171773547Y-100680761D01*
X171834023Y-100801714D01*
X171834023Y-101285523D01*
X170564023Y-101285523D01*
X170564023Y-100862190D01*
X170624500Y-100741238D01*
X170684976Y-100680761D01*
X170805928Y-100620285D01*
X170926880Y-100620285D01*
X171047833Y-100680761D01*
X171108309Y-100741238D01*
X171168785Y-100862190D01*
X171168785Y-101285523D01*
X171834023Y-99834095D02*
X171773547Y-99955047D01*
X171713071Y-100015523D01*
X171592119Y-100076000D01*
X171229261Y-100076000D01*
X171108309Y-100015523D01*
X171047833Y-99955047D01*
X170987357Y-99834095D01*
X170987357Y-99652666D01*
X171047833Y-99531714D01*
X171108309Y-99471238D01*
X171229261Y-99410761D01*
X171592119Y-99410761D01*
X171713071Y-99471238D01*
X171773547Y-99531714D01*
X171834023Y-99652666D01*
X171834023Y-99834095D01*
X171834023Y-98322190D02*
X171168785Y-98322190D01*
X171047833Y-98382666D01*
X170987357Y-98503619D01*
X170987357Y-98745523D01*
X171047833Y-98866476D01*
X171773547Y-98322190D02*
X171834023Y-98443142D01*
X171834023Y-98745523D01*
X171773547Y-98866476D01*
X171652595Y-98926952D01*
X171531642Y-98926952D01*
X171410690Y-98866476D01*
X171350214Y-98745523D01*
X171350214Y-98443142D01*
X171289738Y-98322190D01*
X171834023Y-97717428D02*
X170987357Y-97717428D01*
X171229261Y-97717428D02*
X171108309Y-97656952D01*
X171047833Y-97596476D01*
X170987357Y-97475523D01*
X170987357Y-97354571D01*
X171834023Y-96386952D02*
X170564023Y-96386952D01*
X171773547Y-96386952D02*
X171834023Y-96507904D01*
X171834023Y-96749809D01*
X171773547Y-96870761D01*
X171713071Y-96931238D01*
X171592119Y-96991714D01*
X171229261Y-96991714D01*
X171108309Y-96931238D01*
X171047833Y-96870761D01*
X170987357Y-96749809D01*
X170987357Y-96507904D01*
X171047833Y-96386952D01*
X170564023Y-94996000D02*
X171834023Y-94572666D01*
X170564023Y-94149333D01*
X171713071Y-93726000D02*
X171773547Y-93665523D01*
X171834023Y-93726000D01*
X171773547Y-93786476D01*
X171713071Y-93726000D01*
X171834023Y-93726000D01*
X171834023Y-92456000D02*
X171834023Y-93181714D01*
X171834023Y-92818857D02*
X170564023Y-92818857D01*
X170745452Y-92939809D01*
X170866404Y-93060761D01*
X170926880Y-93181714D01*
D12*
%TO.C,C1*%
X150435000Y-99160000D02*
X150435000Y-96420000D01*
X155675000Y-99160000D02*
X155675000Y-96420000D01*
X155675000Y-96420000D02*
X150435000Y-96420000D01*
X155675000Y-99160000D02*
X150435000Y-99160000D01*
%TO.C,U2*%
X157480000Y-76200000D02*
X157480000Y-88900000D01*
X177800000Y-76200000D02*
X177800000Y-88900000D01*
X160020000Y-73660000D02*
X175260000Y-73660000D01*
X175260000Y-91440000D02*
X160020000Y-91440000D01*
X157480000Y-76200000D02*
G75*
G02*
X160020000Y-73660000I2540000J0D01*
G01*
X175260000Y-73660000D02*
G75*
G02*
X177800000Y-76200000I0J-2540000D01*
G01*
X160020000Y-91440000D02*
G75*
G02*
X157480000Y-88900000I0J2540000D01*
G01*
X177800000Y-88900000D02*
G75*
G02*
X175260000Y-91440000I-2540000J0D01*
G01*
%TO.C,C2*%
X154420000Y-104013000D02*
G75*
G03*
X154420000Y-104013000I-3270000J0D01*
G01*
X151150000Y-107243000D02*
X151150000Y-100783000D01*
X151110000Y-107243000D02*
X151110000Y-100783000D01*
X151070000Y-107243000D02*
X151070000Y-100783000D01*
X151030000Y-107241000D02*
X151030000Y-100785000D01*
X150990000Y-107240000D02*
X150990000Y-100786000D01*
X150950000Y-107237000D02*
X150950000Y-100789000D01*
X150910000Y-107235000D02*
X150910000Y-105053000D01*
X150910000Y-102973000D02*
X150910000Y-100791000D01*
X150870000Y-107231000D02*
X150870000Y-105053000D01*
X150870000Y-102973000D02*
X150870000Y-100795000D01*
X150830000Y-107228000D02*
X150830000Y-105053000D01*
X150830000Y-102973000D02*
X150830000Y-100798000D01*
X150790000Y-107224000D02*
X150790000Y-105053000D01*
X150790000Y-102973000D02*
X150790000Y-100802000D01*
X150750000Y-107219000D02*
X150750000Y-105053000D01*
X150750000Y-102973000D02*
X150750000Y-100807000D01*
X150710000Y-107214000D02*
X150710000Y-105053000D01*
X150710000Y-102973000D02*
X150710000Y-100812000D01*
X150670000Y-107208000D02*
X150670000Y-105053000D01*
X150670000Y-102973000D02*
X150670000Y-100818000D01*
X150630000Y-107202000D02*
X150630000Y-105053000D01*
X150630000Y-102973000D02*
X150630000Y-100824000D01*
X150590000Y-107195000D02*
X150590000Y-105053000D01*
X150590000Y-102973000D02*
X150590000Y-100831000D01*
X150550000Y-107188000D02*
X150550000Y-105053000D01*
X150550000Y-102973000D02*
X150550000Y-100838000D01*
X150510000Y-107180000D02*
X150510000Y-105053000D01*
X150510000Y-102973000D02*
X150510000Y-100846000D01*
X150470000Y-107172000D02*
X150470000Y-105053000D01*
X150470000Y-102973000D02*
X150470000Y-100854000D01*
X150429000Y-107163000D02*
X150429000Y-105053000D01*
X150429000Y-102973000D02*
X150429000Y-100863000D01*
X150389000Y-107154000D02*
X150389000Y-105053000D01*
X150389000Y-102973000D02*
X150389000Y-100872000D01*
X150349000Y-107144000D02*
X150349000Y-105053000D01*
X150349000Y-102973000D02*
X150349000Y-100882000D01*
X150309000Y-107134000D02*
X150309000Y-105053000D01*
X150309000Y-102973000D02*
X150309000Y-100892000D01*
X150269000Y-107123000D02*
X150269000Y-105053000D01*
X150269000Y-102973000D02*
X150269000Y-100903000D01*
X150229000Y-107111000D02*
X150229000Y-105053000D01*
X150229000Y-102973000D02*
X150229000Y-100915000D01*
X150189000Y-107099000D02*
X150189000Y-105053000D01*
X150189000Y-102973000D02*
X150189000Y-100927000D01*
X150149000Y-107087000D02*
X150149000Y-105053000D01*
X150149000Y-102973000D02*
X150149000Y-100939000D01*
X150109000Y-107074000D02*
X150109000Y-105053000D01*
X150109000Y-102973000D02*
X150109000Y-100952000D01*
X150069000Y-107060000D02*
X150069000Y-105053000D01*
X150069000Y-102973000D02*
X150069000Y-100966000D01*
X150029000Y-107046000D02*
X150029000Y-105053000D01*
X150029000Y-102973000D02*
X150029000Y-100980000D01*
X149989000Y-107031000D02*
X149989000Y-105053000D01*
X149989000Y-102973000D02*
X149989000Y-100995000D01*
X149949000Y-107015000D02*
X149949000Y-105053000D01*
X149949000Y-102973000D02*
X149949000Y-101011000D01*
X149909000Y-106999000D02*
X149909000Y-105053000D01*
X149909000Y-102973000D02*
X149909000Y-101027000D01*
X149869000Y-106983000D02*
X149869000Y-105053000D01*
X149869000Y-102973000D02*
X149869000Y-101043000D01*
X149829000Y-106965000D02*
X149829000Y-105053000D01*
X149829000Y-102973000D02*
X149829000Y-101061000D01*
X149789000Y-106947000D02*
X149789000Y-105053000D01*
X149789000Y-102973000D02*
X149789000Y-101079000D01*
X149749000Y-106929000D02*
X149749000Y-105053000D01*
X149749000Y-102973000D02*
X149749000Y-101097000D01*
X149709000Y-106909000D02*
X149709000Y-105053000D01*
X149709000Y-102973000D02*
X149709000Y-101117000D01*
X149669000Y-106889000D02*
X149669000Y-105053000D01*
X149669000Y-102973000D02*
X149669000Y-101137000D01*
X149629000Y-106869000D02*
X149629000Y-105053000D01*
X149629000Y-102973000D02*
X149629000Y-101157000D01*
X149589000Y-106847000D02*
X149589000Y-105053000D01*
X149589000Y-102973000D02*
X149589000Y-101179000D01*
X149549000Y-106825000D02*
X149549000Y-105053000D01*
X149549000Y-102973000D02*
X149549000Y-101201000D01*
X149509000Y-106803000D02*
X149509000Y-105053000D01*
X149509000Y-102973000D02*
X149509000Y-101223000D01*
X149469000Y-106779000D02*
X149469000Y-105053000D01*
X149469000Y-102973000D02*
X149469000Y-101247000D01*
X149429000Y-106755000D02*
X149429000Y-105053000D01*
X149429000Y-102973000D02*
X149429000Y-101271000D01*
X149389000Y-106729000D02*
X149389000Y-105053000D01*
X149389000Y-102973000D02*
X149389000Y-101297000D01*
X149349000Y-106703000D02*
X149349000Y-105053000D01*
X149349000Y-102973000D02*
X149349000Y-101323000D01*
X149309000Y-106677000D02*
X149309000Y-105053000D01*
X149309000Y-102973000D02*
X149309000Y-101349000D01*
X149269000Y-106649000D02*
X149269000Y-105053000D01*
X149269000Y-102973000D02*
X149269000Y-101377000D01*
X149229000Y-106620000D02*
X149229000Y-105053000D01*
X149229000Y-102973000D02*
X149229000Y-101406000D01*
X149189000Y-106591000D02*
X149189000Y-105053000D01*
X149189000Y-102973000D02*
X149189000Y-101435000D01*
X149149000Y-106561000D02*
X149149000Y-105053000D01*
X149149000Y-102973000D02*
X149149000Y-101465000D01*
X149109000Y-106529000D02*
X149109000Y-105053000D01*
X149109000Y-102973000D02*
X149109000Y-101497000D01*
X149069000Y-106497000D02*
X149069000Y-105053000D01*
X149069000Y-102973000D02*
X149069000Y-101529000D01*
X149029000Y-106463000D02*
X149029000Y-105053000D01*
X149029000Y-102973000D02*
X149029000Y-101563000D01*
X148989000Y-106429000D02*
X148989000Y-105053000D01*
X148989000Y-102973000D02*
X148989000Y-101597000D01*
X148949000Y-106393000D02*
X148949000Y-105053000D01*
X148949000Y-102973000D02*
X148949000Y-101633000D01*
X148909000Y-106356000D02*
X148909000Y-105053000D01*
X148909000Y-102973000D02*
X148909000Y-101670000D01*
X148869000Y-106318000D02*
X148869000Y-105053000D01*
X148869000Y-102973000D02*
X148869000Y-101708000D01*
X148829000Y-106278000D02*
X148829000Y-101748000D01*
X148789000Y-106237000D02*
X148789000Y-101789000D01*
X148749000Y-106195000D02*
X148749000Y-101831000D01*
X148709000Y-106150000D02*
X148709000Y-101876000D01*
X148669000Y-106105000D02*
X148669000Y-101921000D01*
X148629000Y-106057000D02*
X148629000Y-101969000D01*
X148589000Y-106008000D02*
X148589000Y-102018000D01*
X148549000Y-105957000D02*
X148549000Y-102069000D01*
X148509000Y-105903000D02*
X148509000Y-102123000D01*
X148469000Y-105847000D02*
X148469000Y-102179000D01*
X148429000Y-105789000D02*
X148429000Y-102237000D01*
X148389000Y-105727000D02*
X148389000Y-102299000D01*
X148349000Y-105663000D02*
X148349000Y-102363000D01*
X148309000Y-105594000D02*
X148309000Y-102432000D01*
X148269000Y-105522000D02*
X148269000Y-102504000D01*
X148229000Y-105445000D02*
X148229000Y-102581000D01*
X148189000Y-105363000D02*
X148189000Y-102663000D01*
X148149000Y-105275000D02*
X148149000Y-102751000D01*
X148109000Y-105178000D02*
X148109000Y-102848000D01*
X148069000Y-105072000D02*
X148069000Y-102954000D01*
X148029000Y-104953000D02*
X148029000Y-103073000D01*
X147989000Y-104815000D02*
X147989000Y-103211000D01*
X147949000Y-104646000D02*
X147949000Y-103380000D01*
X147909000Y-104415000D02*
X147909000Y-103611000D01*
X154650241Y-105852000D02*
X154020241Y-105852000D01*
X154335241Y-106167000D02*
X154335241Y-105537000D01*
%TO.C,U1*%
X165481000Y-92964000D02*
X157607000Y-92964000D01*
X165481000Y-108204000D02*
X165481000Y-92964000D01*
X165481000Y-108204000D02*
X157607000Y-108204000D01*
X157607000Y-108204000D02*
X157607000Y-92964000D01*
%TO.C,R1*%
X154914600Y-105918000D02*
X154914600Y-102108000D01*
X154914600Y-102108000D02*
X156870400Y-102108000D01*
X154914600Y-105918000D02*
X156870400Y-105918000D01*
X156870400Y-105918000D02*
X156870400Y-102108000D01*
%TO.C,J1*%
X156464000Y-74168000D02*
X155194000Y-74168000D01*
X155194000Y-94488000D02*
X156464000Y-94488000D01*
X156464000Y-94488000D02*
X156464000Y-91440000D01*
X148844000Y-94488000D02*
X148844000Y-91440000D01*
X149606000Y-94488000D02*
X148844000Y-94488000D01*
X148844000Y-74168000D02*
X148844000Y-77216000D01*
X149606000Y-74168000D02*
X148844000Y-74168000D01*
X156464000Y-77216000D02*
X156464000Y-74168000D01*
X156464000Y-91440000D02*
X156464000Y-77216000D01*
X148844000Y-91440000D02*
X148844000Y-90932000D01*
X150114000Y-94488000D02*
X149606000Y-94488000D01*
X149606000Y-74168000D02*
X150114000Y-74168000D01*
X148844000Y-77724000D02*
X148844000Y-77216000D01*
X152654000Y-74168000D02*
X155194000Y-74168000D01*
X152654000Y-94488000D02*
X155194000Y-94488000D01*
X148844000Y-90932000D02*
X148844000Y-77724000D01*
X152654000Y-74168000D02*
X150114000Y-74168000D01*
X150114000Y-94488000D02*
X152654000Y-94488000D01*
%TO.C,C1*%
D13*
X152888333Y-100647142D02*
X152840714Y-100694761D01*
X152697857Y-100742380D01*
X152602619Y-100742380D01*
X152459761Y-100694761D01*
X152364523Y-100599523D01*
X152316904Y-100504285D01*
X152269285Y-100313809D01*
X152269285Y-100170952D01*
X152316904Y-99980476D01*
X152364523Y-99885238D01*
X152459761Y-99790000D01*
X152602619Y-99742380D01*
X152697857Y-99742380D01*
X152840714Y-99790000D01*
X152888333Y-99837619D01*
X153840714Y-100742380D02*
X153269285Y-100742380D01*
X153555000Y-100742380D02*
X153555000Y-99742380D01*
X153459761Y-99885238D01*
X153364523Y-99980476D01*
X153269285Y-100028095D01*
%TO.C,U2*%
X166878095Y-71842380D02*
X166878095Y-72651904D01*
X166925714Y-72747142D01*
X166973333Y-72794761D01*
X167068571Y-72842380D01*
X167259047Y-72842380D01*
X167354285Y-72794761D01*
X167401904Y-72747142D01*
X167449523Y-72651904D01*
X167449523Y-71842380D01*
X167878095Y-71937619D02*
X167925714Y-71890000D01*
X168020952Y-71842380D01*
X168259047Y-71842380D01*
X168354285Y-71890000D01*
X168401904Y-71937619D01*
X168449523Y-72032857D01*
X168449523Y-72128095D01*
X168401904Y-72270952D01*
X167830476Y-72842380D01*
X168449523Y-72842380D01*
%TO.C,C2*%
X148550333Y-100687142D02*
X148502714Y-100734761D01*
X148359857Y-100782380D01*
X148264619Y-100782380D01*
X148121761Y-100734761D01*
X148026523Y-100639523D01*
X147978904Y-100544285D01*
X147931285Y-100353809D01*
X147931285Y-100210952D01*
X147978904Y-100020476D01*
X148026523Y-99925238D01*
X148121761Y-99830000D01*
X148264619Y-99782380D01*
X148359857Y-99782380D01*
X148502714Y-99830000D01*
X148550333Y-99877619D01*
X148931285Y-99877619D02*
X148978904Y-99830000D01*
X149074142Y-99782380D01*
X149312238Y-99782380D01*
X149407476Y-99830000D01*
X149455095Y-99877619D01*
X149502714Y-99972857D01*
X149502714Y-100068095D01*
X149455095Y-100210952D01*
X148883666Y-100782380D01*
X149502714Y-100782380D01*
%TO.C,U1*%
X165949380Y-101091904D02*
X166758904Y-101091904D01*
X166854142Y-101044285D01*
X166901761Y-100996666D01*
X166949380Y-100901428D01*
X166949380Y-100710952D01*
X166901761Y-100615714D01*
X166854142Y-100568095D01*
X166758904Y-100520476D01*
X165949380Y-100520476D01*
X166949380Y-99520476D02*
X166949380Y-100091904D01*
X166949380Y-99806190D02*
X165949380Y-99806190D01*
X166092238Y-99901428D01*
X166187476Y-99996666D01*
X166235095Y-100091904D01*
%TO.C,R1*%
X156408380Y-104052666D02*
X155932190Y-104386000D01*
X156408380Y-104624095D02*
X155408380Y-104624095D01*
X155408380Y-104243142D01*
X155456000Y-104147904D01*
X155503619Y-104100285D01*
X155598857Y-104052666D01*
X155741714Y-104052666D01*
X155836952Y-104100285D01*
X155884571Y-104147904D01*
X155932190Y-104243142D01*
X155932190Y-104624095D01*
X156408380Y-103100285D02*
X156408380Y-103671714D01*
X156408380Y-103386000D02*
X155408380Y-103386000D01*
X155551238Y-103481238D01*
X155646476Y-103576476D01*
X155694095Y-103671714D01*
%TD*%
M02*
